<svg xmlns="http://www.w3.org/2000/svg" width="1397.079" height="180.003">
  <path fill="#ffffff" d="M0 162.003l17.916 18 17.917-18-17.917-18-17.916 18zM107.497 18L89.581 0l-.001.001L89.578 0 71.662 18l.001.001L0 90.001l71.663 72-.001.002 17.916 18 .001-.002.001.002 17.916-18-71.663-72.002L107.497 18zm-71.664 0L17.916 0 0 18l17.916 18 17.917-18zm35.829 72.001l17.916 18 .001-.001.001.001 17.916-18-17.916-18-.001.001-.001-.001-17.916 18zm71.664-36l17.916-18 35.833 36 17.916-18L161.242 0l-53.749 54.001 71.665 72.001-17.916 18.001-35.833-36.001-17.916 18 53.749 54.001 53.748-54.001-71.664-72.001zm89.58 90.003l-.001-.001-17.916 18 17.916 18 .001-.001.001.001 17.916-18-17.917-17.999zm53.746-90.003l17.917-18 35.832 36 17.917-18L304.569 0 250.82 54.001l71.664 72.001-17.916 18.001-35.833-36.001-17.916 18 53.749 54.001 53.748-54.001-71.664-72.001zm-53.746-18.002l.001.001 17.916-18-17.916-18-.001.001-.002-.001-17.916 18 17.916 18 .002-.001zm-.002 36.002l-17.916 18 17.916 18 .001-.001.001.001 17.916-18-17.916-18-.001.001-.001-.001zm143.328 72.003l-17.917 17.999 17.916 18 .001-.001.001.001 17.917-18-17.917-18-.001.001zm53.747 17.999l17.916 18 17.916-18-17.916-18-17.916 18zM376.232 35.999l.001.001 17.917-18-17.917-18-.001.001-.001-.001-17.916 18 17.916 18 .001-.001zm143.327 108.005l-17.917 17.999 17.917 18 .001-.001.001.001 17.916-18-17.916-18-.002.001zM465.812 18L447.896 0 429.98 18l17.916 18 17.916-18zm0 72.001l17.917-18L501.643 90l-.001.001 17.917 18 .001-.001.001.001 17.916-18-.002-.001 35.831-36-17.916-18-35.831 36-35.831-36-35.833 36-35.832-36-55.182 54.001 19.349 18 .001-.001.001.001 17.917-18-.001-.001 17.915-17.999 17.916 18-35.832 36 17.916 18.001 35.832-36.001 35.833 36.001 17.917-18.001-35.833-36zm179.158-36L591.222 0l-17.916 18 35.833 36.001-71.665 72.001 53.748 54.001 17.917-18-35.833-36.001 71.664-72.001zM519.559 35.999l.002.001 17.916-18-17.916-18-.001.001-.002-.001-17.917 18 17.917 18 .001-.001zm143.327 108.006l-.001-.002-17.916 18 17.916 18 .001-.002.001.002 17.916-18-17.916-18-.001.002zm0-108.006l.001.001 17.916-18-17.916-18-.001.001-.002-.001-17.916 18 17.916 18 .002-.001zm17.915 90.003l53.748 54.001 17.916-18-53.749-54.001-17.915 18zm125.411 18.002l-17.917 17.999 17.916 18 .001-.001.001.001 17.916-18-17.917-17.999zm-17.915-90.003L734.549 0l-17.916 18 53.748 54.001 17.916-18zm17.916 18h-.002l-17.916 18 .001.001-17.915 18L698.717 36l-53.748 54.001.001.001-35.831 36 17.916 18.001 53.748-54.001-.001-.002 17.915-18 71.665 72.002 53.748-54.001-17.917-18zM806.212 36l17.917-18-17.916-18-.001.001-.001-.001-17.916 18 17.917 18zm53.747 18.001l17.916-18 35.834 36 17.914-18L877.875 0l-53.748 54.001 71.664 72.001-17.916 18.001-35.832-36.001-17.916 18 53.748 54.001 53.748-54.001-71.664-72.001zm89.58 90.003l-17.917 17.999 17.916 18 .001-.001.001.001 17.918-18-17.919-17.999zm143.149-71.822l-.18-.181-17.916 18 17.916 18 .18-.181.18.181 17.916-18-17.916-18-.18.181zm-143.15-.181l-17.916 18 17.916 18 .001-.001.001.001 17.918-18-17.918-18h-.002zM949.539 36l17.919-18L949.54 0l-.001.001-.001-.001-17.916 18 17.917 18zm107.497 108.003l17.916-18.001-35.834-36 35.834-36-17.916-18-35.832 36-17.918-18L1039.118 18l-17.914-18-53.75 54.001 35.832 36-35.832 36 53.75 54.001 17.914-18-35.832-36.001 17.918-18 35.832 36.002zm35.652.181l-.18-.181-17.916 18 17.916 18 .18-.181.18.181 17.916-18-17.916-18-.18.181zm35.652-72.183L1182.088 18l-17.916-18-53.748 54.001 17.916 18zm-35.652-36.181l.18.181 17.916-18-17.916-18-.18.181-.18-.182-17.916 18 17.916 18 .18-.18zm89.4 54.181l35.832-36-17.916-18-53.748 54.001 35.832 36-17.916 18.001-35.832-36.001-17.916 18 53.748 54.001 53.748-54.001-35.832-36.001zm53.747 54.003l-17.917 17.999 17.916 18 .001-.001.001.001 17.916-18-17.917-17.999zm-.001-72.003l-17.916 18 17.916 18 .001-.001.001.001 17.916-18-17.916-18h-.002zM1397.079 18l-17.916-18-17.914 18 17.914 18 17.916-18zm-161.244 18l17.917-18-17.916-18-.001.001-.001-.001-17.916 18 17.917 18zm125.414 54.001l17.914 18 17.916-18-17.916-18-17.914 18zm-71.666-36l17.916-18 35.832 36 17.918-18L1307.499 0l-53.748 54.001 71.664 72.001-17.916 18.001-35.832-36.001-17.916 18 53.748 54.001 53.75-54.001-71.666-72.001zm71.666 108.002l17.914 18 17.916-18-17.916-18-17.914 18z"/>
</svg>
