<svg xmlns="http://www.w3.org/2000/svg" width="1046.636" height="179.998">
  <path fill="#ffffff" d="M1010.567 53.999l36.069-36-18.034-18-36.07 36L974.499 18h.001L956.465 0l-.002.002-.002-.002-18.034 18 .002.002L920.395 36l-18.033-17.999.002-.001L884.33 0l-.002.002-.002-.002-18.034 18 .002.002-54.103 53.997L740.051 0l-72.317 72.177L595.416 0l-18.034 18 72.14 71.999-72.14 72 18.034 18 72.318-72.178 72.317 72.178L812.191 108l54.103 53.997-.002.002 18.034 18 .002-.002.002.002 18.034-18-.002-.002 18.033-17.998 18.034 17.998-.002.002 18.034 18 .002-.002.002.002 18.034-18-.001-.002 18.033-17.998 36.07 36 18.034-18L1010.566 126l36.069-36-36.068-36.001zM740.051 36l18.036 17.999-18.036 18-18.034-18L740.051 36zm-54.103 53.999L703.983 72l18.034 17.999-18.034 18-18.035-18zm54.103 53.999l-18.034-17.999 18.034-18.001 18.036 18.001-18.036 17.999zM794.156 90l-18.034 17.998-18.034-18L776.122 72l18.034 17.998-.001.001.001.001zm108.205 35.999l-18.033 17.998L830.225 90l.001-.001h-.001l54.103-53.997L902.361 54l-36.069 36 36.069 35.999zm54.102 17.998L902.362 90l.002-.001-.002-.001 54.102-53.997 54.104 53.998-54.105 53.998zM956.461 72l-18.034 17.999 18.034 18 .002-.002.002.002 18.034-18L956.465 72l-.002.002-.002-.002zm-144.27 71.999l-.002-.001-18.034 18 18.034 18 .002-.002.001.002 18.034-18-18.035-17.999zM667.735 35.821l.178.179 18.035-18-18.035-18-.178.179-.18-.179-18.034 18 18.034 18 .18-.179zm144.456.178l.001.001 18.034-18-18.034-18-.001.001-.002-.001-18.034 18 18.034 18 .002-.001zM667.735 144.176l-.18-.178-18.034 18 18.034 18 .18-.179.178.179 18.035-18-18.035-18-.178.178zm-54.284-54.177L595.416 72l-18.034 17.999 18.034 18 18.035-18zm-54.104 53.999l18.034-17.999-36.028-35.958.042-.042-.042-.042 36.028-35.958L559.347 36l-36.028 35.957-17.992-17.958 36.068-36L523.361 0l-36.07 36-18.034-17.999.002-.001-18.034-18-.002.002-.002-.002-18.034 18 .002.002L415.155 36l-18.034-17.999.002-.001-18.035-18-.002.002-.002-.002-18.034 18 .002.002-54.102 53.996L234.811 0l-72.318 72.177L90.174 0 72.14 18l72.14 71.999-72.14 72 18.034 18 72.318-72.178 72.318 72.178L306.949 108l54.103 53.997-.002.002 18.034 18 .002-.002.002.002 18.034-18-.001-.002 18.034-17.998 18.034 17.998-.002.002 18.034 18 .002-.002.002.002 18.034-18-.001-.002 18.034-17.998 17.993 17.958-.042.042 18.035 18 .042-.042.042.042 18.034-18L505.328 126l17.992-17.958 36.027 35.956zM234.811 36l18.036 17.999-18.036 18-18.034-18L234.811 36zm-54.104 53.999L198.742 72l18.034 17.999-18.034 18-18.035-18zm54.104 53.999l-18.034-17.999 18.034-18.001 18.036 18.001-18.036 17.999zM288.915 90l-18.034 17.998-18.035-18L270.881 72l18.034 17.998-.001.001.001.001zm108.206 35.999l-18.034 17.998L324.984 90v-.001l54.102-53.997L397.12 54l-36.07 36 36.071 35.999zm108.163-35.958l-54.061 53.956L397.121 90l.001-.001-.001-.001 54.102-53.997 54.061 53.955-.042.042.042.043zm-54.061-18.04l-.002-.001-18.034 17.999 18.034 18 .002-.002.002.002 18.034-18L451.225 72l-.002.001zM306.95 143.999l-.002-.001-18.034 18 18.034 18 .002-.002.001.002 18.034-18-18.035-17.999zM162.493 35.821l.179.179 18.035-18-18.035-18-.179.179-.179-.179-18.034 18 18.034 18 .179-.179zm144.457.178l.001.001 18.034-18-18.034-18-.001.001-.002-.001-18.034 18 18.034 18 .002-.001zM162.493 144.176l-.179-.178-18.034 18 18.034 18 .179-.179.179.179 18.035-18-18.035-18-.179.178zM108.21 89.999L90.174 72 72.14 89.999l18.034 18 18.036-18zM0 161.998l18.036 18 18.035-18-18.035-18-18.036 18zm36.07-71.999l36.07-36L54.106 36 0 89.999l54.106 54L72.14 126 36.07 89.999z"/>
</svg>
