<svg xmlns="http://www.w3.org/2000/svg" width="250" height="250" viewBox="0 0 250 250">
    <title>Dev.by</title>
    <path d="m215.80772 121.92378c-2.09703 0.008-3.81776 1.66436-3.98229 3.73778-0.16377 2.02771 1.41223 3.95411 3.42928 4.20776 2.2806 0.29403 4.37153-1.39091 4.5414-3.69284 0.16605-2.27222-1.73292-4.24509-3.98839-4.2527z" fill="#007DC5"/>
    <path d="m224.54165 99.545086c-14.0561 0-25.45225 11.393864-25.45225 25.456814 0 14.05762 11.39615 25.45454 25.45225 25.45454 14.05914 0 25.45835-11.39692 25.45835-25.45454 0-14.06295-11.39921-25.456814-25.45835-25.456814zm-3.31274 32.141714c-3.8985 3.74692-10.834 2.30116-12.76954-2.81077-0.68327-2.03075-0.57587-7.06346-0.57587-7.06346 0 0 0-5.56135 0-8.34317 0-0.19729-0.0244-1.63999-0.0244-1.71236 0-1.09307 0.88741-1.97895 1.98048-1.97895 1.09308 0 1.97896 0.88588 1.97896 1.97895l0 0.003c0 2.71098 0 4.60539 0 7.31408 2.21586-1.30331 4.9672-1.40919 7.30113-0.35268 2.36134 1.06794 4.04628 3.31502 4.49798 5.85537 0.47151 2.61424-0.4837 5.28637-2.38877 7.10994zm19.27696 1.83727c-0.0503 2.10541-0.95064 4.13312-2.49008 5.60401-1.60876 1.54097-3.7195 2.19757-5.79063 2.09093-0.0906-0.009-1.94163-0.0145-2.45275-0.0229-0.0373 0.003-0.0708 0.0229-0.10817 0.0229-1.08317 0-1.96296-0.87827-1.96296-1.96372 0-1.08622 0.87979-1.96144 1.96296-1.96144 0.0343 0 2.34002 0.0145 2.37125 0.0198 0.0579 0.006 0.11502 0.0122 0.16911 0.0168 2.21433 0.18738 4.20167-1.47165 4.37153-3.71493 0.002-0.0289-0.006-0.0609-0.003-0.0922l-0.0107 0 0-0.69697c-2.21433 1.30788-4.96644 1.41376-7.30189 0.35724-2.36363-1.06793-4.04628-3.32035-4.50331-5.8607-0.0846-0.5035-0.10817-6.33069-0.096-6.91189 0-0.007-0.005-0.0145-0.005-0.0229 0-1.08317 0.87827-1.95915 1.96525-1.95915 1.08317 0 1.96449 0.87598 1.96449 1.95915l0.002 0c-0.002 0.0632-0.002 5.53317-0.006 5.59334-0.0122 2.16025 1.82205 3.98839 3.98839 3.99753 2.10008-0.009 3.82081-1.66513 3.98458-3.73549 0.0114-0.1493-0.006-5.41891-0.0137-5.81958 0-0.01 0-0.0267 0-0.0358l0.008 0c0.0198-1.04585 0.86989-1.89517 1.92335-1.89517 1.06413 0 1.9325 0.86456 1.9325 1.93097 0 0.035-0.0183 0.0625-0.0213 0.0937 0.15539 2.21891 0.11502 9.5764 0.11502 9.5764 0 0 0 1.55468 0 3.43004l0.008 0z" fill="#007DC5"/>
    <path d="m149.96581 79.237519-66.729327 0 0 35.912241c0 9.56878 0.46313 13.05519-1.71692 21.05025-5.76549 15.24134-26.42574 19.54204-38.05574 8.38659-5.66342-5.43186-8.5077-13.40559-7.11527-21.19117 1.35511-7.57078 6.36649-14.26329 13.41396-17.45415 6.95531-3.15277 15.15222-2.83285 21.75485 1.06337l0-27.76713-65.8716299 0c-4.88569001 0-6.82276 3.426997-4.93064001 7.931834C7.8501631 104.15428 17.502733 132.2878 23.208053 144.32075c7.61648 16.04725 22.675 26.44173 42.05403 26.44173l84.702957 0c25.17042 0 45.76211-20.58635 45.76211-45.75829 0.00076-25.17041-20.59245-45.76667-45.76134-45.76667zm-22.35128 49.439701-3.66084 0.79677 0 0.00076-25.089667 5.45928c2.762767 3.2617 7.189147 4.93673 11.647517 3.96553 2.90598-0.62918 5.32064-2.28974 6.97892-4.49798l0.0358-0.008c0.77696-1.09383 1.94316-1.91573 3.35768-2.22271 3.00957-0.65661 5.98106 1.25304 6.63462 4.26261 0.4098 1.88603-0.18586 3.75682-1.42748 5.05175-3.19314 4.08056-7.74673 7.12898-13.20753 8.31803-12.45724 2.71174-24.756037-5.19115-27.468537-17.65067-2.71173-12.46028 5.19268-24.75832 17.654487-27.46853 12.45799-2.71098 24.75451 5.19191 27.46396 17.65067 0.40905 1.88146 0.65661 5.56287-2.91893 6.34287zm47.16139-16.59492c-0.51721 2.36439-2.25698 4.74554-3.34854 6.854-2.53425 4.92226-5.07155 9.84299-7.61038 14.76069-2.11379 4.08969-4.21767 8.18091-6.32917 12.27213-0.99633 1.93174-2.1412 3.59153-4.28622 4.13693-0.6886 0.19652-1.41757 0.26279-2.15111 0.16453-2.59138-0.34125-3.85356-2.15263-4.94892-4.27784-2.11074-4.09122-4.21462-8.18244-6.32917-12.27214-2.53882-4.91769-5.07613-9.83843-7.61038-14.75993-1.09232-2.10845-2.83133-4.49036-3.34854-6.85476-1.32464-3.92821 2.24327-7.74749 6.21338-7.05661 3.40872 0.58729 4.59777 4.34335 5.97801 7.017 3.59382 6.96978 7.18916 13.9426 10.78373 20.9139 3.59839-6.97891 7.19677-13.95859 10.79516-20.93599 1.37948-2.67441 2.56853-6.42971 5.97725-7.01776 3.97163-0.69164 7.53954 3.12688 6.2149 7.05585z" fill="#007DC5"/>
    <path d="m105.43693 115.58395c-4.45837 0.96967-7.789387 4.33421-8.946447 8.4498l20.598547-4.48122c-2.76277-3.26323-7.19068-4.93978-11.6521-3.96858z" fill="#007DC5"/>
  <path d="m59.622273 115.49483c-6.72069 0.0168-12.37421 5.90564-11.87147 12.66366 0.50731 6.85704 6.72679 11.88214 13.52365 11.01301 6.01381-0.7663 10.70223-6.50894 10.21853-12.54865-0.49664-6.17149-5.62457-11.11051-11.87071-11.12802z" fill="#007DC5"/>
</svg>
