<svg xmlns="http://www.w3.org/2000/svg" width="244.96" height="250" viewBox="0 0 244.96 250">
    <title>Frontend Weekend</title>
    <rect width="250" height="250" fill="#F7DF1E"/>
    <path d="m111.22 125 0 26.66 35.62 0 0-5.62-14.15-0.03-14.16-0.05-0.05-9.5-0.03-9.48 24.62 0-0.03-2.85-0.05-2.84-12.28-0.05-12.27-0.03 0.03-8.56 0.05-8.54 13.93-0.05 13.92-0.03 0-5.62-35.14 0zm39.22 0 0 26.66 7.22 0 0-20.54c0-11.3 0.07-20.59 0.12-20.63 0.08-0.05 5.93 9.17 13.01 20.51l12.85 20.59 3.65 0.05 3.65 0.03 0-53.3-7.22 0 0 20.56c0 11.31-0.05 20.56-0.11 20.56-0.08 0-5.92-9.25-12.98-20.56l-12.86-20.56-7.31 0 0 26.66zm45.49 0 0 26.66 9.14 0c11.09 0 12.52-0.12 16.22-1.42 3.1-1.1 5.53-2.62 7.89-4.99 2.91-2.92 4.74-6.17 5.75-10.24 0.56-2.27 0.7-4.27 0.7-10 0-6.66-0.19-8.53-1.11-11.49-2.3-7.33-8.12-12.76-15.51-14.47-2.69-0.63-3.89-0.69-13.6-0.69l-9.45 0 0 26.66zm18.59-20.87c4.43 0.5 7.78 2.36 10.27 5.66 1.67 2.22 2.66 4.5 3.24 7.55 0.27 1.37 0.29 2.36 0.29 7.67 0 5.3-0.03 6.3-0.29 7.67-1.04 5.61-4.25 10-8.64 11.93-2.77 1.23-4.91 1.47-11.52 1.42l-4.64-0.05-0.05-20.79c-0.02-11.45 0-20.88 0.05-20.99 0.1-0.24 9.16-0.27 11.31-0.03zM54.9 99.26c-2.71 0.7-4.82 3.01-5.59 6.07-0.38 1.55-0.38 7.5 0 9.03 0.61 2.43 2.27 4.63 4.23 5.54 2.3 1.1 5.29 1.06 7.53-0.07 1.11-0.56 2.54-1.98 3.21-3.12 0.96-1.71 1.16-2.9 1.16-6.87 0-3.84-0.2-5.11-1.04-6.7-0.63-1.16-2.08-2.63-3.14-3.2-1.79-0.96-4.26-1.23-6.33-0.69zm4.43 1.6c1.35 0.41 2.39 1.25 3.14 2.51 1.02 1.71 1.11 2.18 1.19 6.02 0.07 3.79-0.07 4.78-0.86 6.46-0.58 1.24-1.79 2.4-2.94 2.87-0.78 0.31-1.23 0.36-2.66 0.38-1.64 0-1.79-0.03-2.77-0.51-1.71-0.83-2.88-2.46-3.35-4.65-0.29-1.32-0.28-7.06 0.02-8.26 0.6-2.46 2.08-4.2 4.21-4.86 1.02-0.33 2.9-0.28 4.06 0.08zm-45.99 8.99 0 10.55 1.72 0 0-9.84 5.15-0.03 5.13-0.05 0-1.42-5.13-0.05-5.15-0.03 0-8.27 11.77 0 0-1.42-13.49 0zm16.94 0 0 10.55 1.88 0 0-9.53 3.31 0c3.65 0 4.51 0.12 5.56 0.79 1.33 0.85 1.81 2.17 1.81 4.94 0 1.73 0.22 2.89 0.65 3.42 0.27 0.33 0.46 0.39 1.18 0.39 0.5 0 0.85-0.07 0.85-0.17 0-0.09-0.19-0.48-0.42-0.87-0.39-0.67-0.42-0.87-0.51-3.31-0.09-2.22-0.15-2.72-0.47-3.42-0.42-0.97-1.49-1.99-2.37-2.26-0.34-0.09-0.61-0.22-0.61-0.28 0-0.07 0.28-0.24 0.61-0.39 0.82-0.36 1.83-1.38 2.35-2.34 0.36-0.69 0.41-0.96 0.41-2.34 0-1.38-0.05-1.68-0.42-2.43-0.55-1.16-1.35-1.98-2.42-2.44-1.55-0.72-2.46-0.82-7.06-0.83l-4.28 0 0 10.55zm10.13-8.54c1.84 0.83 2.69 2.67 2.25 4.78-0.25 1.21-0.94 2.08-2.11 2.67l-0.94 0.48-3.71 0.05-3.72 0.07 0-8.48 3.72 0.05c3.51 0.05 3.77 0.07 4.52 0.41zm29.71 8.54 0 10.55 1.72 0 0.03-9.06 0.05-9.04 5.98 9.02 5.98 9.02 0.87 0.05 0.89 0.05 0-21.12-1.72 0-0.03 9.04-0.05 9.03-5.98-9-5.97-9-0.89-0.05-0.89-0.05zm18.52-9.84 0 0.7 3.67 0.03 3.63 0.05 0.05 9.79 0.03 9.81 1.72 0 0-19.69 7.22 0 0-1.42-16.31 0zm-61.56 29.17c0.03 0.11 1.16 4.48 2.51 9.74 1.35 5.23 2.56 9.91 2.68 10.35l0.24 0.83 1.66 0 2.16-7.32a803.92 805.2 0 0 0 2.68-9.17c0.27-1.04 0.53-1.77 0.58-1.64 0.05 0.12 0.34 1.14 0.65 2.27 0.31 1.11 1.47 5.13 2.58 8.9l2.02 6.88 0.85 0.05 0.85 0.05 2.64-10.29c1.45-5.66 2.68-10.41 2.71-10.56 0.07-0.25-0.03-0.28-0.83-0.24l-0.91 0.05-1.86 7.35c-1.02 4.03-2 8.03-2.18 8.83-0.15 0.82-0.34 1.63-0.41 1.81-0.05 0.19-0.31-0.56-0.68-2.04-0.33-1.3-1.5-5.41-2.61-9.14l-2-6.8-0.86-0.05-0.85-0.05-2.16 7.33c-1.19 4.03-2.37 8.14-2.61 9.08-0.24 0.97-0.47 1.81-0.51 1.83-0.05 0.05-0.19-0.58-0.34-1.38-0.14-0.8-1.14-4.89-2.2-9.09-1.06-4.2-1.94-7.67-1.94-7.69 0-0.03-0.42-0.07-0.94-0.07-0.67 0-0.91 0.05-0.86 0.19zm28.63 10.36 0 10.55 13.34 0 0-1.42-11.62 0 0-8.75 10.19 0 0-1.57-10.19 0 0-7.96 11.62 0 0-1.42-13.34 0zm17.09 0 0 10.55 13.34 0 0-1.42-11.6 0 0-8.75 10.19 0 0-1.57-10.19 0 0-7.96 11.62 0 0-1.42-13.34 0zm17.25 0 0 10.55 1.72 0 0-9.84 2.93 0 4.38 4.92 4.38 4.92 2.15 0-0.29-0.38c-0.15-0.2-2.24-2.58-4.65-5.33-2.41-2.72-4.35-5.02-4.3-5.13 0.05-0.11 1.96-2.4 4.26-5.09a823.03 824.34 0 0 0 4.28-5.03c0.05-0.08-0.38-0.14-0.92-0.14l-1.02 0-4.13 4.83-4.13 4.85-1.44 0-1.45 0.02 0-9.69-1.72 0 0 10.55z" fill="#000000"/>
</svg>
