<svg xmlns="http://www.w3.org/2000/svg" width="250" height="250" viewBox="0 0 250 250">
    <title>jobs.tut.by</title>
    <path d="M0 79.7 250 79.7l0 35.1-250 0 0-35.1 0 0zM171.5 99.2l-2.6-7-2.5 7 5.1 0 0 0zm7 7.5-7.5-18.8-4 0-7.3 18.8 4 0 1.6-4.3 7.5 0 1.6 4.3 4.1 0 0 0zm-27.2 0 3.8 0 0-15.7 5.6 0 0-3.2-15 0 0 3.2 5.6 0 0 15.7 0 0zm-20.8-9.4c0 2.1 0.5 3.8 1.5 4.9 1 1.1 2.2 1.6 3.8 1.6 1.5 0 2.8-0.5 3.7-1.6 1-1.1 1.5-2.7 1.5-4.9 0-2.2-0.5-3.8-1.4-4.8-0.9-1.1-2.2-1.6-3.8-1.6-1.6 0-2.8 0.5-3.8 1.6-1 1.1-1.4 2.7-1.4 4.9l0 0zm-3.9 0.1 0 0c0 3 0.8 5.4 2.5 7.1 1.7 1.7 3.9 2.6 6.7 2.6 2.8 0 5-0.9 6.6-2.6 1.7-1.7 2.5-4.1 2.5-7.1 0-3.1-0.8-5.5-2.5-7.2-1.7-1.7-3.9-2.6-6.7-2.6-1.5 0-2.9 0.2-4.1 0.7-0.9 0.4-1.7 0.9-2.4 1.7-0.7 0.8-1.3 1.6-1.8 2.6-0.6 1.3-0.9 2.9-0.9 4.8l0 0zm-14.6 6.1 3.7 0c1.2 0 2-0.1 2.5-0.2 0.5-0.1 0.9-0.4 1.3-0.8 0.4-0.4 0.5-0.9 0.5-1.5 0-0.9-0.3-1.5-0.9-1.9-0.6-0.4-1.7-0.6-3.2-0.6l-3.9 0 0 5 0 0zm-3.8-15.7 0 18.8 8.9 0c1.6 0 2.8-0.2 3.6-0.5 0.8-0.3 1.6-1 2.3-1.9 0.7-0.9 1-2 1-3.3 0-1.2-0.3-2.3-1-3.3-0.7-0.9-1.4-1.6-2.4-1.9-0.9-0.3-2.1-0.5-3.5-0.5l-5.1 0 0-4.4 10.3 0 0-3.2-14.1 0 0 0zm-9.5 11.4-2.6-7-2.5 7 5.1 0 0 0zm7 7.5-7.5-18.8-4 0-7.3 18.8 4 0 1.6-4.3 7.5 0 1.6 4.3 4.1 0 0 0zm-28.4-15.7 0 5.3 2.1 0c1.5 0 2.5-0.1 3-0.3 0.5-0.2 0.9-0.5 1.2-0.9 0.3-0.4 0.4-0.9 0.4-1.5 0-0.7-0.2-1.3-0.6-1.7-0.4-0.4-0.9-0.7-1.5-0.8-0.5-0.1-1.4-0.1-2.7-0.1l-1.8 0 0 0zm-3.8 15.7 3.8 0 0-7.1 2.5 0c1.7 0 3-0.1 3.9-0.3 0.7-0.1 1.3-0.4 2-0.9 0.6-0.5 1.2-1.1 1.6-1.9 0.4-0.8 0.6-1.8 0.6-2.9 0-1.5-0.4-2.7-1.1-3.7-0.7-0.9-1.6-1.6-2.7-1.8-0.7-0.2-2.2-0.3-4.5-0.3l-6.1 0 0 18.8z" fill="#DB2328"/>
    <polygon points="35.6 37.4 0 37.4 0 48.9 10.5 48.9 10.5 75.1 25.1 75.1 25.1 48.9 35.6 48.9 " transform="matrix(1.1741764,0,0,1.1741764,-7.570336e-6,79.696222)" fill="#1B489B"/>
    <polygon points="120.3 37.4 84.8 37.4 84.8 48.9 95.2 48.9 95.2 75.1 109.9 75.1 109.9 48.9 120.3 48.9 " transform="matrix(1.1741764,0,0,1.1741764,-7.570336e-6,79.696222)" fill="#1B489B"/>
    <path d="m94.6 123.6-17.2 0 0 13.5 8.6 0-15.4 20.3-15.4-20.3 8.6 0 0-13.5-17.2 0 0 28.3c0 9.6 8.3 18.4 23.9 18.4 14.8 0 24-8.8 24-18.4l0-28.3z" fill="#DB2328"/>
    <path d="m174.5 158 6.9 0c6.1 0 6.1-8.6 0-8.6l-6.9 0 0 8.6 0 0zm0-17.2 5.7 0c5.5 0 5.5-7.4 0-7.4l-5.7 0 0 7.4 0 0zm-16-17.2 28.3 0c13.5 0 16.1 17.7 5.9 21.6 12.1 2.6 12.5 22.6-4.7 22.6l-29.5 0 0-44.2z" fill="#1B489B"/>
    <polygon points="198.3 59.4 212.9 37.4 197.2 37.4 190.9 48.3 184.7 37.4 169 37.4 183.6 59.3 183.6 75.1 198.3 75.1 " transform="matrix(1.1741764,0,0,1.1741764,-7.570336e-6,79.696222)" fill="#1B489B"/>
    <circle cx="143.8" cy="162" r="7.7" fill="#1B489B"/>
</svg>
