<svg xmlns="http://www.w3.org/2000/svg" width="647" height="545" viewBox="0.28 -3.3 647 545">
    <title>The Rolling Scopes</title>
    <path d="M271.33 20.83C310 4.47 352.56-2.22 394.41 0.65c40.97 3.08 81.25 15.48 116.64 36.41 31.72 18.69 59.58 43.91 81.31 73.64 25.37 34.62 42.3 75.41 48.7 117.87 4.91 33.66 3.91 68.34-4.14 101.44 5.24 10.25 7.86 22.05 6.09 33.51 -2.02 17.25-13.08 33.03-28.48 41.02 -3.51 2.41-8.71 2.45-11.1 6.28 -28.05 44.94-69.51 81.48-117.86 103.21 -10.09 4.71-20.6 8.44-31.15 11.96 -0.55 0.12-1.64 0.36-2.19 0.48 -50.82 15.6-106.29 15.05-157.04-0.62 -37.99-12.03-73.38-32.33-102.6-59.46 -27.98-25.79-50.44-57.54-65.33-92.57 -6.64-15.37-11.45-31.45-15.37-47.69 -7-4.28-15.44-5.5-23.5-4.57 -16.65 1.72-32.4 7.74-48.51 11.86 11.48-8.46 24-15.5 36.98-21.37 -20.62 0.27-40.84 5.12-60.84 9.76 -5.36 1.33-10.72 2.7-16.02 4.23 20.59-22.03 47.68-36.94 75.61-47.6 -9.55-1.22-19.23-2.35-28.35-5.62 -8.55-2.86-16.52-7.29-23.68-12.75 6.9-0.21 13.83 0.23 20.71-0.57 21.24 0.15 43.54-1 62.48-11.67 3.48-46.05 19.32-91.1 45.32-129.25C181.29 75.41 223.21 40.91 271.33 20.83z"/>
    <path fill="#F9FCFA" d="M345.3 10.26c34.07-3.5 68.9-1.19 101.82 8.56 69.63 19.84 129.75 70.28 161.51 135.32 15.7 31.52 24.84 66.33 26.45 101.51 -0.23 7.36 1.1 14.7 0.13 22.04 -0.22 14.49-2.17 28.88-4.84 43.11 -1.93-1.81-3.9-3.57-5.94-5.24 2.93-18.78 5.06-37.85 3.84-56.87 -0.26-4.97-0.42-9.94-0.91-14.89 -3.98-39.48-17.31-78.01-38.89-111.33 -21.71-33.83-51.56-62.4-86.3-82.61 -36-20.96-77.24-33.09-118.92-34.08 -5.01-0.74-10.09-0.2-15.13-0.37l-0.67 0.49c-43.75 0.62-87.05 14.05-124.35 36.74 -36.56 22.38-67.37 54.1-88.55 91.38 -16.34 28.47-26.9 60.2-31.11 92.74 -1.97 2.4-4.89 3.74-7.49 5.33 4.75-48.49 24.04-95.32 54.14-133.58 31.42-40.09 74.79-70.75 123.17-86.73C310.16 16.19 327.63 12.35 345.3 10.26z"/>
    <path fill="#FCFDFC" d="M356.78 31.22c5.17-2.61 12.37-3 16.67 1.43 2.94 2.65 3.41 6.82 4.39 10.44 -2.81 0.24-5.63 0.4-8.44 0.37 -0.96-1.78-1-4.61-3.22-5.35 -1.79-0.46-3.63 0.05-5.41 0.25 -0.14 1.5-0.22 3-0.26 4.51 5.08 1.87 10.78 2.93 14.76 6.9 4.45 4.2 4.1 11.38 1.44 16.46 -3.97 7.46-15.1 8.49-21.3 3.35 -3.31-3.13-3.94-7.81-4.62-12.07 3.02 0 6.04 0 9.06-0.03 0.66 1.83 0.92 3.89 2.17 5.47 1.23 1.85 3.61 1.13 5.48 1.23 1.32-2.32 2.06-5.06 1.19-7.67 -2.91-2.74-7.24-2.7-10.67-4.49C350.1 48.56 349.26 35.55 356.78 31.22z"/>
    <path fill="#FBFDFA" d="M396.44 31.65c4.95-1 11.13-0.85 14.78 3.21 3.01 3.06 3.39 7.62 3.35 11.68 -2.61-0.07-5.21-0.29-7.79-0.61 -0.85-1.86-1.36-3.84-2.13-5.73 -1.71-0.25-3.75-1.65-5.31-0.37 -2.02 0.93-2.28 4.08-0.12 5 4.24 2.25 9.06 3.99 12.02 8 3.76 4.66 2.65 11.64-0.53 16.3 -5.11 7.23-17.55 6.85-22.42-0.4 -2.26-3.35-2.1-7.59-2.24-11.44 2.97 0.36 5.94 0.77 8.93 0.93 0.53 2.29 0.3 5.01 2.08 6.79 1.02 0.6 2.2 0.85 3.33 1.18 0.58-0.32 1.72-0.95 2.29-1.27 1.23-2.18 1.49-4.66 1.04-7.1 -4.01-2.54-8.93-3.78-12.27-7.26C386.75 44.7 388.8 33.97 396.44 31.65z"/>
    <path fill="#FBFDFA" d="M316.25 37.86c3.68-2.91 8.75-3.62 13.23-2.46 5.24 1.86 8.75 6.98 9.48 12.39 -2.94 0.75-5.89 1.48-8.88 1.92 -0.46-1.45-0.91-2.9-1.36-4.34 -1.58-0.36-3.15-0.71-4.73-1.06 -1.57 1.09-3.58 1.97-4 4.05 0.92 5.55 2.1 11.06 3.4 16.52 0.71 3.7 5.92 4.89 8.4 2.21 1.68-1.46 1.05-3.94 1.39-5.88 2.71-0.85 5.46-1.7 8.29-2.08 1.91 2.62 1.75 6.22 0.98 9.23 -1.96 5.27-7.43 8.14-12.58 9.46 -6.8 0.95-14.48-3.67-15.54-10.74 -1.2-6.18-2.47-12.35-3.52-18.55C309.95 44.17 312.97 40.32 316.25 37.86z"/>
    <path fill="#FBFDFA" d="M456.24 58.91c2.22-4.65 6.45-9.25 12.03-9.01 7.74 0.05 16.5 6.42 15.2 14.92 -1.12 5.85-4.51 10.91-6.62 16.42 -2.4 5-4.15 10.34-7.03 15.1 -2.73-0.71-5.2-2.11-7.76-3.24 0.64-3.82 2.75-7.12 4.19-10.65 2.36-5.59 5.05-11.04 7.28-16.68 0.92-1.88-0.27-3.69-0.87-5.44 -2.38-0.35-5.68-1.16-6.96 1.58 -4.05 8.89-7.88 17.88-11.94 26.76 -3.31-0.33-6.27-1.95-9.09-3.58C448.46 76.33 452.43 67.66 456.24 58.91z"/>
    <path fill="#FAFDFA" d="M243.66 68.53c2.6-1.56 5.17-3.2 7.9-4.53 6.11 9.66 11.38 19.84 17.4 29.56 4.52-2.55 8.91-5.31 13.52-7.66 1.54 2.54 3 5.12 4.35 7.76 -7.26 3.91-14.28 8.25-21.49 12.27C258.09 93.47 251.03 80.91 243.66 68.53z"/>
    <path fill="#FBFDFA" d="M495.25 71.62c6.49-4.32 16.43-1.81 20.07 5.08 1.09 1.82 1.61 3.9 2.31 5.9 -0.2 2.81-0.58 5.77-2.34 8.09 -3.79 5.24-7.31 10.68-11.28 15.78 -2.91 3.64-8.05 4.41-12.38 3.42 -8.08-1.53-14.05-10.85-10.77-18.68 2.08-3.76 4.86-7.09 7.19-10.7C490.33 77.46 492.14 73.93 495.25 71.62z"/>
    <path fill="#010101" d="M497.44 81.72c1.08-1.77 2.96-2.69 4.8-3.5 1.52 0.67 3.04 1.36 4.54 2.1 0.81 2.26 1.84 4.94 0.24 7.13 -2.37 3.64-4.88 7.19-7.44 10.69 -2.37 2.89-6.68 3.04-9.52 0.77 -0.4-1.12-0.8-2.22-1.2-3.33C490.75 90.42 494.44 86.24 497.44 81.72z"/>
    <path fill="#FBFDFB" d="M219.4 86.84c4.96-5.17 14.41-6.29 19.59-0.84 6.87 7.45 13.95 14.73 20.64 22.37 -2.18 2.01-4.29 4.1-6.47 6.1 -7.15-6.8-13.29-14.58-20.4-21.41 -1.49-1.59-3.8-0.92-5.71-0.98 -1.23 1.89-2.59 4.56-0.83 6.59 6.33 7.17 12.97 14.08 19.58 21 -0.03 0.61-0.05 1.23-0.07 1.85 -2.25 1.8-4.28 3.85-6.41 5.79 -5.96-6.6-12.22-12.93-18.11-19.59 -1.65-1.68-3.45-4.03-6.13-3.27 -2.75 0.77-4.44 4.5-2.12 6.67 6.57 7.36 13.39 14.5 20.18 21.67 -2.01 2.44-4.43 4.48-6.84 6.52 -6.81-7.07-13.39-14.37-20.16-21.47 -3.94-3.76-4.63-9.92-2.48-14.79 1.74-5.1 6.99-8.03 12.19-8.27C216.6 91.97 217.31 89 219.4 86.84z"/>
    <path fill="#FFFFFF" d="M299.05 101.33c35.38-16.24 76-20.57 114.05-12.45 36.75 7.68 70.84 27.14 96.44 54.55 13.99 15.07 25.51 32.4 33.94 51.16 5.7 13.38 10.34 27.31 12.66 41.71 -19.13-3.75-38.02-8.84-56.39-15.39 -8.72-3.15-17.36-6.63-25.51-11.07 -1.29-0.67-2.44-1.55-3.33-2.68 -3.69-4.38-7.38-8.74-11.08-13.1 -0.93-1.71-2.93-1.06-4.48-1.14 -0.34-1.78-0.6-3.57-0.83-5.35 -3.63-3.7-3.55-8.96-3.72-13.79 -1.5-14.65-0.78-29.71-5.1-43.96 -5.67-12.62-17.29-22.83-31.12-25.23 -9.77-1.53-19.88-0.77-29.38 1.95 -17.66 4.95-33.8 14.06-49.11 23.97 -13.83 9.09-26.97 19.2-39.69 29.77 -15.73 0.87-30.27 7.54-44.09 14.59 -9.06 4.41-18.1 9.29-28.05 11.37 -4.95 0.63-9.93 1.01-14.8 2.19C228.07 150.2 260.3 118.84 299.05 101.33z"/>
    <path fill="#FBFDFB" d="M527.23 92.7c1.69-1.7 3.16-4.15 5.89-3.98 4.41 5.37 11.49 8.9 13.36 16.03 0.64 3.89-0.21 8.24-3 11.15 -4.08 4.59-8.26 9.1-12.59 13.46 -3.46 3.64-9.12 3.94-13.64 2.49 -5.69-3.07-10.05-8.02-14.75-12.37C510.51 110.34 519.13 101.76 527.23 92.7z"/>
    <path fill="#010001" d="M532.43 101.53c2.56 1.54 4.66 3.84 4.81 6.99 -4.54 4.91-9.07 9.84-13.7 14.67 -1.43-0.03-2.87-0.05-4.29-0.08 -1.21-1.18-2.43-2.36-3.64-3.52C521.3 113.65 526.92 107.64 532.43 101.53z"/>
    <path fill="#FFFFFF" d="M360.4 134.69c13.93-8.01 28.75-15.58 44.93-17.43 10.26-1.38 21.82 1.65 28.23 10.25 5.23 5.72 5.81 13.81 6.52 21.15 0.92 7.37 0.51 14.84 1.65 22.2 -2.87 0.55-5.71 1.37-8.63 1.6 -1.5-0.71-2.99-1.4-4.31-2.39 -0.51-2-0.82-4.04-1.13-6.08 -11.79 2.19-24.22 4.63-33.87 12.23 -4.85 3.7-7.72 9.42-8.72 15.36 -0.01 1.79-0.05 3.59 0.08 5.4 1.63 1.36 3.97 1 5.94 1.49 -2.75 5.05-5.21 10.34-5.96 16.1 0 1 0 3 0 4 4.61-0.72 8.53-3.36 12.84-4.95 -0.19 1.03-0.56 3.09-0.74 4.12 -0.09 1.4-0.17 2.8-0.24 4.2 0.9 2.22 1.99 4.35 3.25 6.38 6.21-1.35 11.58-4.94 17.51-7.06 -0.17 0.86-0.51 2.58-0.68 3.44 0.24 0.68 0.71 2.03 0.94 2.7 6.38-1.56 12.44-4.3 17.81-8.08 7.01-4.5 13.82-10.41 22.35-11.52 4.76 3 6.98 9.2 12.01 12.09 8.18 4.94 17.06 8.58 25.96 12 18.28 6.79 37.09 12.15 56.17 16.16 9.92 2.17 20.03 3.65 29.65 6.99 5.38 1.95 10.8 5.24 13.18 10.69 4.48 10.71 4.42 23.38-0.86 33.79 -4.73 8.72-13.17 15.84-23.05 17.74 -39.56 9.15-79.76 15.3-119.98 20.65 -11.95 1.32-23.87 2.76-35.85 3.77 -27.62 2.47-55.35 3.86-83.1 3.52 -9.09 0.13-18.26-0.08-27.14-2.19 -3.48-1.32-7.05-2.8-9.56-5.66 -3.44-3.34-4.4-8.2-5.28-12.71 -1.47-8.28-3.44-16.52-3.72-24.96 -0.31-7.34 2.18-14.35 3.57-21.47 4.31-21.48 7.69-43.17 13.18-64.41 0.73-2.6 0.32-5.35 1.04-7.95 2.89-12.08 6.3-24.02 9.42-36.04 0.37-1.03 0.51-2.27 1.38-3C329.58 155.19 344.46 144.1 360.4 134.69z"/>
    <path fill="#FBFDFB" d="M526.22 143.14c11.67-8.44 23.3-16.93 34.99-25.34 4.17 6.01 8.58 11.85 12.82 17.81 -2.41 1.7-4.68 3.62-7.29 5 -2.86-3.24-5.25-6.87-7.75-10.39 -1.86 1.3-3.74 2.57-5.62 3.83 0.11 2.92 2.52 4.91 3.9 7.31 -2.21 1.65-4.45 3.28-6.75 4.81 -1.53-2.13-3-4.3-4.72-6.27 -1.99 1.16-3.85 2.51-5.73 3.82 -0.33 0.41-0.99 1.23-1.32 1.64 2.54 3.43 5.08 6.86 7.47 10.41 -2.37 1.8-4.8 3.51-7.31 5.11C534.76 154.91 530.07 149.31 526.22 143.14z"/>
    <path fill="#FCFDFA" d="M185.19 122.56c0.94-1.27 1.71-2.73 3.02-3.66 2.61 1.16 4.69 3.22 7 4.88 -1.82 2.53-3.69 5.01-5.37 7.65 9.23 6.61 18.34 13.38 27.59 19.95 -1.37 2.6-3.18 4.92-4.95 7.25 -9.41-6.66-18.63-13.58-28.05-20.22 -1.6 2.37-3.12 4.81-4.96 7 -2.93-0.15-4.97-3.03-7.42-4.42C176.04 134.58 180.93 128.79 185.19 122.56z"/>
    <path fill="#FCFEFB" d="M161.75 160.06c1.57-3.05 3.15-6.1 5.06-8.95 12.35 6.72 25.02 12.94 37.17 20.01 0.15 3.38-2.71 6.4-4.3 9.31 -5.11-2.44-9.79-5.8-15.13-7.7 -0.79 1.74-1.6 3.49-2.39 5.25 4.82 2.88 10.16 4.88 14.73 8.2 -1.47 2.98-3.08 5.89-4.64 8.82 -12.67-6.37-25.09-13.25-37.63-19.84 -0.47-1.9 1.17-3.65 1.84-5.36 0.89-1.25 1.25-3.23 2.82-3.78 5.08 2.27 9.78 5.33 14.86 7.63 0.94-1.75 1.9-3.49 2.92-5.2C171.98 165.61 166.78 162.98 161.75 160.06z"/>
    <path fill="#F6FCF8" d="M543.37 164.82c1.13-3.08 4.95-3.27 7.38-1.66 1.06 2.18 1.15 4.49-0.06 6.63 -1.22 0.48-2.43 0.96-3.64 1.46C544.82 170 541.53 167.75 543.37 164.82z"/>
    <path fill="#F8FBF9" d="M395.86 184.93c9.18-7.9 20.74-11.9 32.11-15.46l0.82 0.6c1.32 0.99 2.81 1.68 4.31 2.39 -12.63 4.99-24.8 11.07-37.26 16.45C395.82 187.57 395.83 186.26 395.86 184.93z"/>
    <path fill="#FCFDFB" d="M553.97 178.48c1.67-3.94 5.46-6.34 9.23-7.99 1.29 2.97 2.65 5.91 3.92 8.9 -2.59 1.39-5.01 3.44-4.45 6.68 1.5 0.38 3.07 1.7 4.66 0.89 9.47-3.81 18.52-8.58 27.88-12.64 1.35 3.14 2.88 6.19 4.14 9.37 -6.81 3.29-13.74 6.34-20.55 9.63 -4.7 1.89-9.58 4.7-14.82 3.71C555.94 195.69 550.45 185.94 553.97 178.48z"/>
    <path fill="#FFFFFF" d="M232.36 199.31c23.92-4.82 43.23-22.87 67.8-25.4 -2.84 11.61-6.28 23.07-9.07 34.7 -0.84 3.64-0.7 7.45-1.83 11.03 -6.39 24.81-9.6 50.3-15.55 75.21 -1.61 7.48-0.71 15.21 0.71 22.65 0.71 4.97 1.76 9.93 3.7 14.59 -8.19 0.35-16.23 3.14-23.2 7.39 -7.95 4.68-13.92 12.9-23.51 14.44 -12.01 0.87-22.33-6.85-34.08-7.74 -4.26-0.02-8.23 2.11-12.52 1.94 0.78-0.58 1.56-1.14 2.35-1.7 6.01-3.15 11.99-6.79 18.84-7.77 8.36-0.95 16.77-1.54 25.07-2.92 4.54-0.82 8.72-2.96 12.18-5.99 4.56-3.84 12.05-4.67 14.13-10.99 0.44-4.5-0.5-11.76-6.13-12.36 -4.8 0.69-8.75 3.9-12.45 6.81 -6.16 4.85-11.72 10.5-18.37 14.71 -2.99 2.06-6.77 1.46-10.19 1.51 -5.06-0.08-9.87-1.99-14.89-2.37 -7.59 0.8-14.84 3.39-22.03 5.83 -5.51 1.7-11.14 3.56-16.98 3.27 -7.93-0.23-15.49-3.12-22.5-6.65 4.82-0.16 9.69 0.27 14.48-0.52 16.21-2.33 30.88-10.19 46.67-14.08 5.04-1.48 10.47 0.04 15.43-1.89 7.45-2.58 14.47-8.81 15.49-16.97 0.51-3.16-0.74-6.1-2.21-8.79 -4.48-4.07-10.71-1.61-15.31 0.89 -13.28 7.52-24.19 18.52-37.37 26.19 -3.57 2.03-7.65 3.23-11.78 3.06 -8.83-0.24-17.29-3.05-25.97-4.4 -8.01-1.49-16.18-1.2-24.28-0.88 15.25-7.38 32.64-6.61 48.97-9.6 5.98-1.15 12.5-1.94 17.39-5.87 1.94-1.4 2.01-3.98 2.34-6.12 -2.05-5.75-6.8-11.23-13.32-11.36 -10.11 0.31-18.51 6.71-26.64 12 -5.62 3.63-11.3 8.87-18.51 8.02 -7.39-1-14.61-3.44-22.14-3.34l-0.65-0.43c-7.25-0.13-14.49 0.64-21.61 1.97 6-3.75 12.06-7.66 18.94-9.58 8.13-2.37 16.74-1.42 25-2.92 13.77-3.9 22.65-16.19 34.96-22.74 3.68-1.79 7.86-3.28 11.99-2.37 10.39 1.68 16.56 11.82 26.51 14.55 8.88 2.18 18.17-1.19 25.35-6.4 3.9-2.71 7.09-6.6 8.15-11.31 -1.79-4.98-8.01-5.95-12.62-5.52 -7.73 0.69-12.27 7.77-18.79 11.04 -9.72-1.07-16.82-8.47-25.74-11.61 -5.74-1.45-12.4-0.75-17.05 3.19 -7.41 5.96-15.18 11.94-24.47 14.63 -10.79 3.5-22.44 1.76-32.98-1.78 11.02-1.12 22.2-3.47 31.75-9.34 11.71-6.98 20.42-19.38 34.46-22.04 7.81-2.03 15.53 1.47 22.24 5.17 4.24 2.12 8.85 4.63 13.75 3.7 7.39-1.68 12.75-7.39 18.98-11.27 2.95-1.91 6.94-2.08 9.18-5.05 1.88-1.56 1.25-4.13 1.41-6.26 -1.92-2.13-4.53-3.81-7.52-3.23 -9.72 0.84-15.47 10.31-24.52 12.89 -3.44 0.74-6.71-0.84-9.92-1.84 -5.33-1.85-10.91-3.22-16.6-2.96 -5.21-0.26-10.16 1.54-15.22 2.43 2.38-2.11 4.73-4.37 7.72-5.6 7.1-3.22 15.14-1.84 22.59-3.49 6.79-1.67 11.99-6.59 17.8-10.16 6.07-4.13 12.92-7.15 20.15-8.54C224.27 200.01 228.39 200.23 232.36 199.31z"/>
    <path fill="#EEFAF9" d="M402.48 198.95c8.41-5.98 16.5-12.79 26.15-16.72 -2.18 2.47-4.64 4.66-7.24 6.65 -9.92 7.68-19.98 15.17-30.28 22.33C393.17 205.84 398.33 202.61 402.48 198.95z"/>
    <path fill="#FDFDFC" d="M437.24 191.82c2.86-1 5.95-1.28 8.92-0.58 0.23 5.41-4.96 8.57-8.41 11.9 -10.78 8.6-23.33 14.62-36.04 19.78 0.75-5.29 2.55-10.33 4.44-15.29C416.15 201.71 426.15 195.51 437.24 191.82z"/>
    <path fill="#FBFEFB" d="M584.99 205.52c2.19-4.06 6.98-5.65 11.29-6.13 8.34 0.12 13.06 9.96 11.14 17.23 -1.3 4.97-6.13 7.49-10.53 9.24 -0.76-2.71-1.45-5.44-2.15-8.16 1.51-1.27 4.35-1.82 4.34-4.21 0.05-1.44-0.25-2.85-0.4-4.27 -1.41-0.43-2.83-0.82-4.25-1.13 -0.34 0.59-1.01 1.75-1.35 2.34 -0.21 5.9-0.59 12.67-5.32 16.89 -3.46 3.52-8.85 3.43-13.38 2.76 -7.88-2.1-11.51-11.91-8.66-19.11 2.03-4.39 6.69-6.46 10.98-8.03 0.89 2.91 1.63 5.86 2.33 8.82 -2.25 1.4-6.19 2.47-5.56 5.89 -0.37 1.8 1.42 2.64 2.45 3.76 2.27-0.24 5.22 0.11 6.59-2.19C583.69 214.73 582.97 209.8 584.99 205.52z"/>
    <path fill="#010102" d="M336 249.59c2.68-8.82 11.35-13.98 20.1-15.06 6.98-0.42 14.56 0.67 20.08 5.31 3.79 2.91 5.24 7.67 6.55 12.06 2.14 0 4.29 0.05 6.44 0.2 0.36-5.65 5.2-9.92 10.22-11.76 3.11-1.27 6.07 0.5 8.79 1.83 2.31-1.12 4.36-3.25 7.15-2.86 2.39-0.27 4.79 2.03 7.06 0.68 3.37-1.87 7.73-2.45 11.1-0.26 3.53 1.65 4.73 5.66 5.65 9.13 7.08-2.47 15.57-2.99 21.82 1.85 1.83-0.81 3.64-1.67 5.45-2.54 1.31-6.05 7.96-10.02 13.9-8.46 6.57 1.41 10.82 9.7 6.55 15.45 1.02 3.5 1.3 7.24-0.04 10.71 2.64 2.62 5.51 5.79 4.89 9.83 0.49 5.47-3.56 9.82-7.74 12.7 2.68 4.08 1.03 8.97 2.58 13.34 1.01 4.2 0.23 9.05-3.15 12.02 -4.64 4.96-12 4.23-18.13 5.35 -1.12-0.72-2.24-1.44-3.36-2.13 -6.24 2.94-13.95 3.48-19.69-0.89 -2.26 2.14-4.98 3.68-7.96 4.56 -3.05 4.19-7.07 8.38-12.39 9.31 -5.14 0.18-8.72-4.45-9.64-9.11 -5.16 1.62-10.48 0.89-15.5-0.84 -4.39 3.52-10.49 3.94-15.7 2.19 -2.23 4.35-5.37 8.34-9.85 10.53 -9.56 4.78-22.7 3.18-29.56-5.49 -5.73-7.07-4.79-18.13 1.96-24.22 -1-2.19-1.77-4.47-2.19-6.83 -1.35-0.4-2.69-0.81-4.02-1.2 -1.28 0.67-2.56 1.34-3.83 2.02 -6.77 0.02-13.62-0.67-20.25 1.09 -1.87-1.34-4.1-2.36-5.33-4.38 -1.16-2.07-0.92-4.5-0.98-6.77 -8.66-2.54-11.47-14.64-5.46-21.06 3.72-4.01 9.49-4.67 14.66-4.43 3.27-1.59 7.14-3.72 10.64-1.29 4.39 1.92 3.77 7.37 6.02 10.85 3.34 2.23 7.08-0.91 10.68-0.92C336.27 266.31 334.25 257.04 336 249.59z"/>
    <path fill="#F9FCFA" d="M352.38 242.08c5.86-1.74 12.59-1.61 17.94 1.57 5.65 3.14 7.48 11.47 3.61 16.67 -1.61 2.14-4.29 2.97-6.64 3.98 2.87 7.57 7.3 16.15 15.64 18.59 4.82 1.31 8.6-3.45 13.28-3 2.61 0.07 2.41 3.33 2.63 5.19 -4.33 6.66-13.73 7.82-20.49 4.49 -6.78-3.47-11.15-10.28-13.89-17.17 -1.09-2.75-1.97-5.56-2.9-8.36 -0.43 0.06-1.31 0.17-1.74 0.23 0.1 1.66 0.21 3.33 0.33 5 1.06 0.48 2.12 0.96 3.19 1.45 -0.27 1.23-0.56 2.47-0.87 3.7 -1.94 3.39-4.88 6.12-8.3 7.98 -0.98-0.93-2.21-1.64-2.85-2.85 0.81-2.28 2.61-4.2 2.69-6.72 0.14-4.34-0.47-8.67-0.39-13.01 0.11-2.58-1.73-4.58-3.09-6.55 2.12-2.86 5.73-2.36 8.86-2.29 0.31 0.54 0.63 1.08 0.96 1.63 -0.43 2.29-0.62 4.61-0.7 6.94 2.85-0.01 6.33 0.36 8.19-2.33 2.92-3.26 0.21-8.32-3.56-9.45 -5.8-1.97-14.17-0.53-16.49 5.89 0.97 3.63 4.55 6.24 4.31 10.19 -1.54 0.58-3.17 1.93-4.86 1.01 -4.73-2.44-6.34-8.6-4.81-13.43C343.62 246.72 347.87 243.38 352.38 242.08z"/>
    <path fill="#F4FAF9" d="M426.06 245.27c1.54-0.56 3.2-0.19 4.8-0.15 1.35 2.42 2.24 6.13-0.29 8.09 -2 0.77-4.95 0.65-5.86-1.64C423.25 249.49 424.57 246.91 426.06 245.27z"/>
    <path fill="#F8FCF9" d="M395.77 251.46c1.29-2.75 4.17-4.21 6.82-5.38 3.6 8.21 1.53 17.5 3.16 26.11 0.89 1.05 1.92 1.99 2.91 2.97 0.03 0.54 0.08 1.63 0.11 2.17 -3.49 1.65-7.44 1.22-11.17 0.96 -0.03-0.61-0.08-1.84-0.11-2.45 0.71-1.09 1.43-2.18 1.98-3.36 -0.14-5.92-0.95-11.81-0.84-17.74C397.67 253.67 395.18 253.38 395.77 251.46z"/>
    <path fill="#F8FCF9" d="M409.5 249.7c2.07-1.78 4.18-3.68 6.94-4.25 2.14 4.77 1.75 10.13 2.26 15.23 0.38 4.5-0.94 9.87 2.71 13.35 1.21 0 2.42 0 3.64 0 0.48-0.57 1.43-1.7 1.9-2.26 0.03-3.02 0.03-6.04-0.11-9.05 -0.89-0.22-2.67-0.65-3.56-0.87 0.84-3.61 4.06-5.73 7.26-7.05 2.18 5.08 1.15 10.75 2.2 16.07 1.07 1.11 2.15 2.22 3.24 3.33 -0.04 0.49-0.11 1.45-0.14 1.93 -3.23 0.6-6.51 0.87-9.79 0.91 -1.02-0.77-2.04-1.51-3.05-2.27 -2.45 4.52-8.41 3.14-12.5 2.25 0.87-2.41 2.88-4.54 2.55-7.26 -0.2-4.33-0.5-8.66-0.71-12.99 -0.15-1.04-0.28-2.07-0.39-3.1C409.83 253.3 409.57 251.48 409.5 249.7z"/>
    <path fill="#F6FAF7" d="M473.58 248.11c2.06-3.92 9.45-2.08 8.37 2.67 -1.36 2.34-4.12 1.2-6.27 1.33 2.32 3.14 6.78 6.02 5.27 10.53 -1.79 4.2-7.03 4.54-10.85 5.8 -0.2 0.43-0.6 1.29-0.8 1.73 4.13 2.12 8.7-1.2 12.85 0.82 2.02 0.7 2.77 2.87 3.61 4.64 -1.42 6.92-9.19 9.61-15.47 9.13 -2.67-0.47-6.2-0.85-7.59-3.5 -1.25-2.42 1.04-5.39 3.63-4.92 2.26 1.58 4.21 3.6 6.71 4.84 2.29-0.87 6.43-1.25 5.68-4.67 -1.24-1.72-3.55-1.5-5.39-1.35 -2.77 0.22-5.55 0.22-8.33 0.16 -0.72-0.72-1.43-1.44-2.14-2.15 -0.01-0.92-0.01-1.83-0.01-2.73 1.1-1.01 2.21-2.02 3.34-3 -1.27-1.45-3.21-2.57-3.55-4.6 -0.73-2.26 0.56-4.36 1.41-6.35 3.05-1.66 6.39-2.59 9.82-3.06C473.38 251.72 471.97 249.63 473.58 248.11z"/>
    <path fill="#F8FBF9" d="M446.85 256.38c2.42-1.52 5.62-3.56 8.41-1.68 3.02 2.05 2.6 6.04 2.9 9.21 -0.13 2.7 2.78 4.02 2.97 6.64 -2.51 2.67-5.01 7.18-9.37 5.57 0.79-5.24 2.21-10.95-0.27-15.95 -1.53 0.39-3.03 0.8-4.55 1.19 -0.4 2.11-1.15 4.22-0.85 6.4 0.26 2.91 2.97 4.57 4.3 6.98 -3.48 1.7-7.36 1.71-11.13 1.5 -0.39-0.48-1.18-1.45-1.57-1.93 0.96-1 1.93-1.98 2.95-2.92 0.27-0.82 0.56-1.62 0.84-2.43 -0.44-2.16-0.64-4.35-0.76-6.54 -0.75-0.14-2.23-0.42-2.98-0.56 0.02-1.54 0.4-3.01 0.96-4.42 1.71-1.15 3.41-2.32 5.16-3.43 1.08 1.22 1.82 2.65 2.54 4.12C446.51 257.69 446.74 256.82 446.85 256.38z"/>
    <path fill="#030207" d="M468.06 260.5c0.76-2.84 4.06-2.65 6.36-2.28 0.74 1.13 1.34 2.33 1.78 3.63 -1.61 0.97-3.33 1.71-5.06 2.42C469.93 263.28 467.09 262.68 468.06 260.5z"/>
    <path fill="#F8FBF6" d="M380.69 259.21c4.39-2.16 10.39-0.69 12.69 3.79 2.07 4.51 2.18 10.53-1.57 14.2 -2.75 3.04-7.45 2.7-11.07 1.82C373.12 275.69 373.02 262.58 380.69 259.21z"/>
    <path fill="#152028" d="M359.82 264.27c0.43-0.06 1.31-0.17 1.74-0.23 0.93 2.8 1.81 5.61 2.9 8.36 -0.67 0.67-1.34 1.34-1.99 2.02 0.31-1.23 0.6-2.47 0.87-3.7 -1.07-0.49-2.13-0.97-3.19-1.45C360.03 267.6 359.92 265.93 359.82 264.27z"/>
    <path fill="#020103" d="M381.92 264.42c2.14-2.4 6.6-0.85 6.98 2.29 0.32 2.59 0.82 6.16-2 7.62 -1.97 0.27-4.62 0.51-5.54-1.72C380.15 270.14 379.91 266.51 381.92 264.42z"/>
    <path fill="#F2FAF9" d="M319.27 268.17c1.44-1.61 3.22-2.64 5.43-2.2 -0.01 1.82 0.27 3.98-1.5 5.12 -1.57 0.38-3.18 0.41-4.77 0.55 0.23 3.82 0.18 7.65 0.51 11.46 0.68 0.85 1.37 1.71 2.06 2.58 -1.89 2.56-3.83 5.93-7.54 5.64 0.66-4.06 2.89-8.63 0.14-12.4 -1.62 2.53-5.88 2.16-7.48-0.19 -2.29-2.61-1.81-7.21 1.13-9.16C310.73 267.05 315.3 268.6 319.27 268.17z"/>
    <path fill="#030408" d="M308.36 276.05c0.42-1.62 0.15-3.79 2.06-4.48 1.29-0.27 2.6-0.4 3.93-0.4 0.09 1.95 0.22 3.91 0.4 5.88C312.74 276.07 310.51 276.2 308.36 276.05z"/>
    <path fill="#F2F9F8" d="M323.2 271.08c0.73 0.27 2.19 0.8 2.93 1.06 0.37 2.08 0.39 4.21 0.55 6.33 2.25-1.14 4.56-1.55 6.78-0.09 0.23 1.93 0.43 3.86 0.58 5.8 0.61 0.86 1.23 1.73 1.85 2.61 -1.12 1.31-2.27 2.59-3.48 3.83 -0.72-0.14-2.15-0.42-2.87-0.56 1.05-2.91 1.86-6.3-0.09-9.05 -0.93 0.33-1.81 0.78-2.69 1.22 0.02 1.39 0.08 2.8 0.18 4.2 0.71 1.16 1.45 2.31 2.23 3.44 -2.38 0.33-4.78 0.54-7.18 0.59 -0.05-0.38-0.15-1.15-0.2-1.54 0.62-0.95 1.24-1.88 1.83-2.83 -0.73-3.07-0.68-6.24-0.69-9.37C319.37 275.9 322.53 273.02 323.2 271.08z"/>
    <path fill="#F1FBF9" d="M339.82 277.17c3.06-0.61 7.26-0.34 7.98 3.45 1.2 4.32-4.56 3.78-7.26 3.9 0.14 0.44 0.43 1.32 0.58 1.76 2.31-0.05 4.44-1.07 6.72-1.33 0.77 5.46-8.7 6.29-10.18 1.44C335.85 283.13 337.29 279.52 339.82 277.17z"/>
    <path fill="#61A6C3" d="M339.22 280.74c1.88-0.57 3.78-1.09 5.71-1.52C345.28 282.75 340.9 283.11 339.22 280.74z"/>
    <path fill="#F8FCF9" d="M360.39 286.39c2.09 0.31 3.98-2.37 5.95-0.85 2.68 2.25 4.31 5.84 4.18 9.35 -0.88 0.73-1.89 1.25-2.88 1.8 -2.52-2.1-5.05-4.3-8.19-5.38 -1.22 0.44-2.45 0.88-3.66 1.33 -0.16 1.5-1.83 3.51 0.2 4.41 5.2 3.01 11.55 3.68 16.31 7.59 2.82 3.77 3.8 8.47 3.35 13.11 -3 11.53-19.15 14.66-27.47 7.02 -5.2-4.29-5.25-14.16 1.01-17.51 3.28-2.03 8.07-2 10.56 1.25 -0.46 1.09-0.91 2.19-1.36 3.29 -2.23 0.76-4.96 0.88-6.5 2.88 -0.77 2.82 0.37 6.18 3.21 7.34 3.76 1.66 8.86 1.28 11.83-1.75 3.36-3.83 2.35-10.54-2.2-12.99 -4.47-2.37-9.68-3.19-13.9-6.07 -3.31-2.29-3.88-7.21-1.49-10.36C351.66 287.17 356.25 285.83 360.39 286.39z"/>
    <path fill="#F7FAF9" d="M464.98 291.41c2.73-2.44 6.83 0 9.62-2.32 0.51 0 1.54-0.01 2.05-0.01 1.36 2.14 2.41 4.47 3.26 6.88 -2.9 2.61-5.85-0.06-8.41-1.67 -0.46 0.06-1.4 0.16-1.86 0.22 -0.01 0.78-0.02 1.57-0.01 2.37 3.29 1.5 7.31 1.88 9.92 4.6 1.99 2.12 0.57 5-0.01 7.42 -2.63 2.26-5.99 2.88-9.36 2.28 -1.21 0.59-2.49 1.75-3.92 1.14 -2.38-2-3.92-4.95-3.82-8.09 3.63-1.91 6.43 1.63 9.66 2.73 2.38 0.96 1.85-1.99 2.13-3.27 -3.39-1.09-6.83-2.1-10.01-3.73 -0.36-0.58-1.08-1.74-1.44-2.32C462.74 295.38 463.19 292.96 464.98 291.41z"/>
    <path fill="#F8FCF9" d="M425.35 294.78c2.77-1.64 6.18-3.42 9.35-1.64 6.11 3.44 6.85 12.71 2.91 18.07 -1.95 3.07-6.56 3.98-9.47 1.77 -1.71-0.88-1.85-3.68-0.32-4.79 1.43-0.21 2.89-0.3 4.36-0.28 2.33-2.24 2.93-5.36 1.41-8.25 -0.56-0.39-1.68-1.17-2.24-1.56 -2.14 0.02-4.86 0.55-5.35 3.04 -0.37 3.34-0.12 6.72 0.01 10.08 -0.05 1.93 1.92 2.88 2.81 4.39 0.46 1.57-1.05 2.64-1.84 3.77 -1.93 1.85-3.99 4.57-7.02 3.76 -1.22-2.75 0.5-5.61 0.42-8.42 -0.18-4.51-0.77-8.99-0.65-13.5 -0.97-0.47-1.94-0.93-2.89-1.39 -0.09-0.56-0.27-1.68-0.35-2.24 1.96-2.12 4.1-4.5 7.18-4.74C424.09 293.33 424.93 294.3 425.35 294.78z"/>
    <path fill="#F8FBF9" d="M445.29 293.69c4.1-4.14 12.25-3.35 14.82 2.14 1.01 2.13 1.64 5.82-1.04 6.95 -3.32 1.73-7.11 1.22-10.69 1.25 0.09 0.51 0.29 1.55 0.39 2.06 3.95 2.92 7.64-1.22 11.77-1.08 0.08 1.25 0.34 2.52 0.18 3.79 -1.48 2.64-4.7 3.27-7.32 4.21 -4.97 0.07-9.98-3.12-10.76-8.25C441.49 300.92 442.53 296.58 445.29 293.69z"/>
    <path fill="#F9FDF8" d="M398.05 297.42c2.52-3.83 7.76-4.06 11.75-2.9 4.96 1.83 5.93 7.76 5.78 12.4 -0.87 2.71-1.99 5.77-4.75 7.1 -2.67 1.56-5.83 0.96-8.76 1.07C395.68 311.94 393.67 303 398.05 297.42z"/>
    <path fill="#F7FCF8" d="M380.67 297.01c1.85-1.64 4.36-2.04 6.65-2.7 2.11 0.74 4.53 1.16 6.15 2.83 1.21 1.63 0.89 4.16-1.01 5.15 -2.73-1.1-5.43-2.57-8.47-2.1 -1.71 3.03-2.47 7.54 0.71 9.9 3.4 1.67 6.6-1.76 10.11-1.22 0.07 1.78 0.91 4.21-1.05 5.32 -2.66 2.54-6.63 2.69-10.03 1.99C376.2 313.45 374.63 301.99 380.67 297.01z"/>
    <path fill="#03080A" d="M449.12 296.42c2.55-0.58 6.29-1.2 6.48 2.48 -2.69 0.77-5.47 1.15-8.26 1.29C447.91 298.92 448.51 297.67 449.12 296.42z"/>
    <path fill="#040304" d="M403.11 299.28c1.7-0.78 3.58-0.22 5.35 0.01 1.31 2.52 2.35 5.44 1.2 8.25 -1.04 3.47-6.72 3.55-7.9 0.09C401.35 304.85 400.75 301.38 403.11 299.28z"/>
    <path fill="#FFFFFF" d="M581.4 328.36c7.07-1.62 12.2-7.15 17.66-11.37 9.9 1.03 19.31 5.71 26.24 12.83 6.06 6.76 10.24 15.62 9.85 24.85 0.57 12.26-5.91 24.05-15.34 31.58 -15.94 13.09-41.14 13.36-56.87-0.23 -9.31-7.77-14.6-20.27-13.08-32.36 0.77-7.35 3.87-14.3 8.34-20.14C565.97 331.99 573.66 330.05 581.4 328.36z"/>
    <path fill="#FAFCFA" d="M123.57 336.82c2.91 2.91 5.76 5.88 8.72 8.74 2.15 1.84 2.49 4.81 3.48 7.32 14.26 40.32 38.88 76.9 70.89 105.28 28.52 25.4 62.79 44.38 99.59 54.7 41.93 11.87 86.95 12.67 129.25 2.15 59.96-14.51 113.81-52.11 148.56-103.01 2.94-0.34 5.89-0.66 8.86-0.79 -35.35 54.27-91.57 94.67-154.51 110.18 -15.13 3.95-30.65 6.3-46.23 7.33 -21.34 1.42-42.84 0.15-63.88-3.66 -41.44-7.47-80.9-25.41-113.97-51.44C170.51 439.27 137.97 390.66 123.57 336.82z"/>
    <path fill="#FFFFFF" d="M520.89 340.46c1.27-0.15 2.59-0.62 3.89-0.3 7.77 6.32 13.32 15.44 14.56 25.46 3.09 19.58-10.96 39.17-29.57 44.72 -12.56 4.08-26.99 2.4-37.96-5.08 -8.6-5.59-14.97-14.58-17.02-24.67 -2.39-10.12-0.03-21.12 5.62-29.76 0.69-1.49 2.49-1.3 3.84-1.56C483.2 346.8 502.06 343.7 520.89 340.46z"/>
    <path fill="#FFFFFF" d="M259.1 372.66c4.1-12.75 14.13-23.87 27.03-27.99 1.77 5.49 6.1 9.9 11.63 11.63 12.16 4.13 25.23 2.47 37.84 2.84 6.2 9.15 9.43 20.67 7.1 31.64 -3.28 19.46-21.7 34.78-41.37 34.76 -14.31 0.7-28.66-6.47-36.7-18.33C257.72 397.26 255.84 384.29 259.1 372.66z"/>
    <path fill="#FFFFFF" d="M367.42 358.29c21.01-0.95 42.02-2.46 62.91-5 7.4 7.51 12.15 17.83 11.72 28.49 -0.11 12.54-7.01 24.49-17.19 31.63 -9.58 6.84-22.07 9.54-33.6 7 -14.95-2.95-27.68-14.84-31.21-29.74 -0.93-6.67-1.02-13.59 0.99-20.08C362.54 366.19 364.92 362.17 367.42 358.29z"/>
    <path fill="#FAFCFB" d="M237.12 366.67c1.55-0.78 3.12-1.53 4.7-2.29 -3.55 8.6-4.55 17.97-4.08 27.19 -6.12-7.09-11.84-14.52-17.12-22.26C226.25 369.54 231.86 368.75 237.12 366.67z"/>
    <path fill="#FBFDFB" d="M192.15 399.71c8.11-5.05 15.73-10.88 23.9-15.85 1.93 2.83 3.83 5.68 5.58 8.63 -7.37 4.8-14.58 9.82-21.95 14.6 -3.48 2.12-7.33 4.33-11.57 3.81 -7.53-0.25-13.55-8.01-12.39-15.35 0.83-4.51 4.04-8.47 8.22-10.34 1.62 2.57 3.49 4.97 5.05 7.58 -1.46 2.15-4.52 4.12-3.18 7.1C187.42 402.17 190.25 400.79 192.15 399.71z"/>
    <path fill="#FCFDFB" d="M214.78 408.22c3.18-2.97 6.8-6.54 11.55-6 7.23 0.98 13.13 7.35 14.27 14.46 0.37 4.35-2.3 8.19-5.55 10.8 -7.19 6.38-13.84 13.37-21.28 19.47 -1.86-1.9-3.74-3.77-5.59-5.67 3.42-4.56 8.04-8.09 12.26-11.88 -2.08-2.56-4.29-5-6.54-7.39 -4.5 3.42-8.32 7.63-12.62 11.28 -1.95-1.74-3.79-3.59-5.62-5.45 -0.04-0.36-0.12-1.1-0.17-1.47C201.77 420.16 208.51 414.42 214.78 408.22z"/>
    <path fill="#FFFFFF" d="M388.19 436.42c22.86 2.94 46.84-9.67 57.06-30.4 6.55 8.86 16 15.44 26.5 18.74 -0.03 0.21-0.11 0.64-0.15 0.85 -35.31 21.76-78.01 31.28-119.18 26.01 -15.59-1.96-31-5.82-45.53-11.84 16.88-3.37 31.71-14.92 39.54-30.2C355.08 424.47 371.08 434.7 388.19 436.42z"/>
    <path fill="#020304" d="M224.16 412c3.81-0.25 8.2 3.31 6.67 7.38 -1.34 1.59-2.99 2.89-4.56 4.25 -2.33-2.25-4.59-4.57-6.72-7.01C221.08 415.07 222.62 413.53 224.16 412z"/>
    <path fill="#FBFDFB" d="M250.25 420.66c2.36 1.56 4.6 3.3 6.88 4.99 -3 7.01-5.84 14.1-9.09 21 -0.11 0.65-0.35 1.94-0.47 2.58 6.38-5.57 13.07-10.76 19.61-16.14 2.16 1.79 4.39 3.49 6.67 5.13 -11.36 9.59-23.06 18.78-34.51 28.28 -2.16-1.64-4.34-3.24-6.54-4.82C238.52 447.96 244.51 434.37 250.25 420.66z"/>
    <path fill="#FBFDF9" d="M458.98 449.97c7.98-4.46 15.73-9.31 23.52-14.08 1.61 2.5 3.15 5.05 4.53 7.7 -2.53 1.54-5.18 2.88-7.59 4.6 0.22 1.31 0.93 2.45 1.6 3.59 5.06 8.41 10.28 16.74 15.17 25.27 0.23 0.16 0.7 0.48 0.93 0.64 -2.55 1.48-5.04 3.05-7.48 4.69 -6.69-9.4-11.88-19.78-18.23-29.41 -2.71 1.58-5.36 3.26-8.16 4.68C461.84 455.08 460.39 452.53 458.98 449.97z"/>
    <path fill="#FBFDFA" d="M279.86 445.52c8.08-2.38 17.99 2.74 20 11.1 0.81 4.42-1.87 8.3-3.72 12.07 -3.79 7.69-7.82 15.24-11.72 22.87 -2.62-1.15-5.15-2.48-7.65-3.85 2.51-5.1 5.12-10.14 7.66-15.22 -2.96-1.5-5.8-3.31-8.98-4.32 -2.35 4.94-5.11 9.68-7.38 14.67 -2.73-0.76-5.25-2.07-7.79-3.27 0.19-2.3 1.21-4.38 2.29-6.37 3.46-6.87 7.13-13.63 10.5-20.55C274.44 449.59 276.5 446.57 279.86 445.52z"/>
    <path fill="#020304" d="M282.1 455.22c0.57-0.22 1.69-0.65 2.25-0.87 2.67 0.56 6.59 1.75 6.54 5.11 -0.65 2.13-1.85 4.04-2.89 6 -2.96-1.45-5.92-2.9-8.81-4.49C280.12 459.03 281.09 457.11 282.1 455.22z"/>
    <path fill="#FCFEFC" d="M428.34 460.85c7.06-1.95 14.06-7.55 21.63-4.74 7.28 2.09 11.42 11.26 7.95 18.05 -2.2 4.43-6.59 7.11-11.11 8.69 1.88 5 3.94 9.94 5.62 15.02 -2.44 1.07-4.92 2.02-7.33 3.13 -0.6 0.02-1.2 0.04-1.79 0.07 -4-10.19-7.81-20.45-11.76-30.66C430.34 467.27 428.82 464.21 428.34 460.85z"/>
    <path fill="#FAFCF9" d="M313.02 458.46c4.75-1.41 10.03-0.4 14.14 2.3 4.42 3.45 5.28 9.79 3.68 14.9 -2.61-0.67-5.2-1.4-7.74-2.26 -0.27-2.14 0.19-5.16-2.17-6.29 -1.43-1.04-3.24-0.72-4.87-0.83 -0.5 1.21-0.99 2.44-1.47 3.67 4.49 3.99 10.58 6.72 12.87 12.71 2.54 7.71-2.98 16.74-10.93 18.26 -1.17-0.03-2.32-0.04-3.47-0.04 -4.11-1.03-8.71-2.48-10.93-6.42 -2.37-3.82-1.67-8.53-1.04-12.74 2.93 0.63 5.87 1.29 8.69 2.35 0.2 2.83-0.13 5.9 2 8.14 1.04 0 3.11 0.01 4.14 0.01 1.35-1.88 3.02-4 2.7-6.45 -3.17-4.3-8.87-6-11.58-10.72C304.59 469.17 306.99 461.14 313.02 458.46z"/>
    <path fill="#FBFEFA" d="M412.01 463.58c3.17-0.67 6.34-1.36 9.55-1.81 2.91 14.06 5.37 28.21 8.35 42.26 -2.61 0.62-5.23 1.18-7.88 1.6 -0.32 0.2-0.97 0.6-1.29 0.81 -1.3-3.52-1.78-7.25-2.54-10.89C416.14 484.89 414.03 474.25 412.01 463.58z"/>
    <path fill="#020204" d="M440.44 466.47c2.59-1.07 5.34-1.84 8.17-1.24 1.11 1.99 1.95 4.34 0.94 6.57 -1.69 1.65-4.04 2.3-6.26 2.89C442.32 471.95 441.28 469.24 440.44 466.47z"/>
    <path fill="#FCFEFD" d="M342.55 471.19c4.64-7.25 16.4-8.25 22.31-1.98 1.8 1.74 2.63 4.16 3.65 6.39 -0.01 2.27-0.02 4.55-0.06 6.84 -2.97 0.11-5.94-0.17-8.89-0.47 -0.03-1.53-0.07-3.06-0.06-4.57 -1.95-2.12-4.95-3.35-7.71-2.08 -2.45 1.74-2.02 5.03-2.58 7.63 -0.43 4.25-1.47 8.44-1.43 12.75 0.37 0.55 1.13 1.65 1.5 2.2 2.28 1.34 4.82 1.04 7.13-0.07 0.64-1.52 1.28-3.03 1.91-4.54 2.93 0.32 5.85 0.78 8.79 1.1 -0.01 4.39-1.48 9.36-5.61 11.57 -6.43 3.48-15.69 2.94-20.33-3.25 -3.74-4.11-2.84-10.04-1.9-15.03C340.46 482.21 340.4 476.4 342.55 471.19z"/>
    <path fill="#FDFEFC" d="M375.43 467.1c5.61-0.79 11.28-1.19 16.95-1.19 2.89-0.1 5.5 1.28 7.99 2.6 4.09 5.01 4.84 12.39 1.75 18.09 -1 1.99-2.82 3.41-3.87 5.36 2.37 5.56 5.99 10.51 8.75 15.91 -3.21 0.05-6.4 0.35-9.59 0.56 -3.58-5.37-6.43-11.21-10.4-16.3 0.05 5.72 1.04 11.38 1.16 17.11 -3.03 0.26-6.04 0.68-9.08 0.78 -0.38-3.06-0.48-6.15-0.84-9.21 -0.6-7.34-1.27-14.68-1.93-22.02C375.87 474.9 375.69 471 375.43 467.1z"/>
    <path fill="#010204" d="M385.61 474.91c3.1-0.94 6.28-0.39 8.95 1.4 0.36 1.2 0.74 2.42 1.12 3.63 -0.76 1.43-1.35 3.15-2.87 3.97 -2.04 0.6-4.14 0.94-6.24 1.28C385.88 481.8 385.64 478.36 385.61 474.91z"/>
</svg>
