<svg xmlns="http://www.w3.org/2000/svg" width="250" height="250" viewBox="0 0 250 250">
    <title>WarsawJS</title>
    <rect width="250" height="250" fill="#FFFFFF"/>
    <path d="m70.7 244.8-6.9-27.8-6.9 27.8-2.5 0-6.8-30 2.1 0 6 28 6.9-28 2.4 0 7 28 6-28 2 0-6.8 30-2.5 0zM97.8 239.8c0 2.7 0.7 3.5 1.9 4l-0.5 1.4c-1.9-0.5-3-1.5-3.2-4-1.7 2.7-4.1 4-7.2 4-4.4 0-7-2.8-7-6.8 0-4.7 3.6-7.4 9.3-7.4l4.7 0 0-2.4c0-3.7-1.5-5.5-5.5-5.5-1.9 0-4 0.5-6.2 1.4l-0.6-1.6c2.5-1 4.7-1.5 7-1.5 5.1 0 7.3 2.5 7.3 7.1l0 11.3zm-2-0.6 0-6.5-4.4 0c-4.7 0-7.5 1.8-7.5 5.7 0 3.3 1.9 5.2 5.1 5.2 3.1 0 5.3-1.6 6.7-4.3zM118.2 221.7l-0.4 1.9c-0.6-0.2-1.2-0.3-2-0.3-3.3 0-5 2.4-6.3 7.2l0 14.3-2 0 0-22.9 1.8 0 0.1 5.3c1.2-3.9 3.3-5.7 6.6-5.7 1 0 1.8 0.1 2.3 0.3zM135.7 223.9l-1 1.4c-2-1.5-3.6-2.2-6.1-2.2-3.2 0-5.4 1.6-5.4 4.2 0 2.4 1.6 3.4 5.8 4.6 5.1 1.4 7.3 2.9 7.3 6.8 0 4-3.5 6.5-8 6.5-3.7 0-6.1-1.3-8-2.9l1.1-1.3c2 1.6 3.9 2.5 6.8 2.5 3.4 0 5.9-1.7 5.9-4.7 0-3-1.3-4-6.2-5.4-4.9-1.3-6.8-3-6.8-6.2 0-3.4 3.2-5.8 7.4-5.8 2.8 0 5 0.8 7.1 2.5zM157.3 239.8c0 2.7 0.7 3.5 1.9 4l-0.5 1.4c-1.9-0.5-3-1.5-3.2-4-1.7 2.7-4.1 4-7.2 4-4.4 0-7-2.8-7-6.8 0-4.7 3.6-7.4 9.3-7.4l4.7 0 0-2.4c0-3.7-1.5-5.5-5.5-5.5-1.9 0-4 0.5-6.2 1.4l-0.6-1.6c2.5-1 4.7-1.5 7-1.5 5.1 0 7.3 2.5 7.3 7.1l0 11.3zm-2-0.6 0-6.5-4.4 0c-4.7 0-7.5 1.8-7.5 5.7 0 3.3 1.9 5.2 5.1 5.2 3.1 0 5.3-1.6 6.7-4.3zM182.2 244.8l-5.5-21-5.5 21-2.7 0-5.9-22.9 2.1 0 5.1 21.2 5.6-21.2 2.4 0 5.6 21.3 5.1-21.3 2 0-5.7 22.9-2.7 0zM198 240.7c0 5.4-1.9 7.4-6.8 9.3l-0.7-1.9c4-1.8 4.9-3.4 4.9-7.5l0-25.9 2.6 0 0 26zM223 217.6l-1.6 1.7c-2.2-2-4.2-2.8-7-2.8-3.7 0-6.2 1.9-6.2 5.1 0 3.1 1.6 4.5 7 6.1 5.4 1.7 8.7 3.6 8.7 8.9 0 5.1-3.9 8.7-10 8.7-4.1 0-7.2-1.4-9.6-3.8l1.6-1.7c2.1 2 4.5 3.2 8 3.2 4.2 0 7.3-2.3 7.3-6.4 0-3.6-1.8-5.1-7.2-6.8-6-1.8-8.6-3.9-8.6-8.2 0-4.3 3.6-7.4 8.8-7.4 3.9 0 6.3 1.2 8.6 3.3z"/>
    <path d="m84.1 79c9.6-6.7 15.9-17.8 15.9-30.3 0-20.4-16.5-36.9-36.9-36.9-20.4 0-36.9 16.5-36.9 36.9 0 20.4 16.5 36.9 36.9 36.9 2.5 0 4.9-0.2 7.2-0.7 4.1 3 13.7 8.5 28.1 8 0 0-13.3-0.6-14.2-13.9" fill="#F7302F"/>
    <path d="m50.5 32.9 0 11.1c0 2.8-1.5 3.9-3.9 3.9l0 3.8c2.3 0 3.9 1.1 3.9 3.8l0 11.1c0 5.3 2.3 7.5 8.5 7.5l0-3.6c-3.1 0-4.6-0.9-4.6-3.4l0-12c0-3.7-1.4-4.6-3.8-5.4 2.4-0.8 3.8-1.8 3.8-5.5l0-12c0-2.5 1.5-3.4 4.6-3.4l0-3.6c-6.2 0-8.5 2.2-8.5 7.5M76 44l0-11.1c0-5.3-2.3-7.5-9.3-7.5l0 3.6c3.1 0 4.6 0.9 4.6 3.4l0 12c0 3.7 1.4 4.7 3.8 5.5-2.4 0.8-3.8 1.7-3.8 5.4l0 12c0 2.5-1.5 3.4-4.6 3.4l0 3.6c7 0 9.3-2.2 9.3-7.5l0-11.1c0-2.8 0.8-3.8 3.1-3.8l0-3.8c-2.3 0-3.1-1.2-3.1-3.9" fill="#FFFFFF"/>
    <rect x="94.5" y="170.1" width="2.1" height="29.8" fill="#F0DB4F"/>
    <rect x="90.7" y="170.1" width="2.1" height="29.8" fill="#F0DB4F"/>
    <rect x="85" y="170.1" width="4" height="29.8" fill="#F7302F"/>
    <rect x="160.5" y="136.9" width="2" height="62.9" fill="#F0DB4F"/>
    <rect x="176.7" y="170.1" width="2" height="29.8" fill="#F0DB4F"/>
    <rect x="170.4" y="136.9" width="3.7" height="62.9" fill="#F0DB4F"/>
    <rect x="101.9" y="136.9" width="3.7" height="62.9" fill="#F0DB4F"/>
    <rect x="113.9" y="80.9" width="4" height="119" fill="#F0DB4F"/>
    <rect x="120.9" y="80.9" width="4" height="119" fill="#F0DB4F"/>
    <rect x="154.7" y="80.9" width="4" height="119" fill="#F0DB4F"/>
    <rect x="164.7" y="136.9" width="4" height="62.9" fill="#F7302F"/>
    <rect x="108.1" y="136.9" width="4" height="62.9" fill="#F7302F"/>
    <rect x="135" y="0" width="3.7" height="199.8" fill="#F7302F"/>
    <rect x="140.8" y="42.5" width="4" height="157.3" fill="#F0DB4F"/>
    <rect x="147.1" y="80.9" width="2" height="119" fill="#F0DB4F"/>
    <rect x="151.3" y="80.9" width="2" height="119" fill="#F0DB4F"/>
    <rect x="131.3" y="42.5" width="2" height="157.3" fill="#F0DB4F"/>
    <rect x="127.2" y="42.5" width="2" height="157.3" fill="#F0DB4F"/>
    <rect x="180.7" y="170.1" width="3" height="29.8" fill="#F0DB4F"/>
    <rect x="185.4" y="170.1" width="2" height="29.8" fill="#F0DB4F"/>
    <rect x="81.3" y="170.1" width="2" height="29.8" fill="#F0DB4F"/>
    <rect x="98.3" y="170.1" width="2" height="29.8" fill="#F0DB4F"/>
    <rect x="189.1" y="170.1" width="4.4" height="29.8" fill="#F0DB4F"/>
    <rect x="74.9" y="170.1" width="4.4" height="29.8" fill="#F0DB4F"/>
    <rect x="195.6" y="170.1" width="2" height="29.8" fill="#F0DB4F"/>
</svg>
