<svg xmlns="http://www.w3.org/2000/svg" viewBox="0 0 180 180">
  <g transform="matrix(.49045 0 0 .49045 16.756 -8.865)">
    <path d="M183.2 26.3c-37.6 0-68 30.5-68 68 0 18 7 35 19.4 47.8 0 .4-.2.6-.3 1 0 0-18.3-7-41.2-3.8-26.4 3.6-36.6 21-36.6 21s-3.6 2.7-12.3-7.7C37 144.2 26 138 26 138s-.2 10.2-4 27c-5 21.7-3 39 3 58.7 6 19.7 34.8 56.5 68 56.4 14.8 0 73.3.3 101-.2 36.8-.7 67.4-35.7 71.8-78.6 4-38.8-12.3-50.4-19.8-59.2-5.4-6.3-7-10.3-2.7-15.8 6.2-8 8.3-18 8.3-31.8 0-37.6-30.5-68-68-68z" fill="#fcd050"/>
    <circle cx="192.5" cy="86.1" r="7.9" stroke="#000" stroke-linejoin="round"/>
    <path d="M64 182a66 66 0 0 0 0 .5 66 66 0 0 0 66 66 66 66 0 0 0 66-66 66 66 0 0 0 0-.4H64z" fill="#f6921e"/>
    <path d="M259.2 88c-5.7 0-8.6-2.2-17.4-2-8.7.2-16 9.2-15.7 16.5.3 9 5.7 19 16.6 19 18.4-.2 30 7.6 33.8-.3 3.7-7.8-4.4-9-4.5-14.6-.2-5 4.4-5.2 6.6-9 2-4-.5-10.2-3-11.2C272 84.8 265 88 259.3 88z" fill="#f6921e" fill-rule="evenodd"/>
  </g>
  <g style="line-height:125%" font-size="112.5" font-family="sans-serif" letter-spacing="0" word-spacing="0">
    <path d="M28 156.4v-.5q0-5.7 2.5-9 2.4-3.3 6.7-3.3 4.3 0 6.5 3.4l.6-3h3.3v23q0 4.5-2.6 6.8-2.5 2.4-7.4 2.4-1.6 0-3.5-.5-1.8-.4-3.3-1.2l1-3.2q1.2.6 2.8 1 1.6.4 3 .4 3 0 4.5-1.4 1.4-1.3 1.4-4.2v-2.5q-2.3 3-6.4 3-4 0-6.5-3-2.4-3-2.4-8zm4.3-.5v.4q0 3.5 1.4 5.6 1.5 2 4.5 2 3.5 0 5.2-3.3v-10.5q-1.7-3.2-5.2-3.2-3 0-4.4 2.5-1.5 2.4-1.5 6.4zM58 143v23h-4v-23h4zm0-10v4.2h-4V133h4zM68.7 166h-4.2v-23h3.7l.4 3.4q2-3.8 5.7-3.8 1 0 1.6.3l-.6 3.8-2.2-.2q-3.2 0-4.5 3V166zM84 133v33h-4.3v-33H84zM98.8 163q2.2 0 3.4-.8 1.3-1 1.3-2.3 0-1.6-1-2.4-1.2-1-4-1.5-4.3-1-6.4-2.4-2-1.6-2-4.3 0-2.8 2.5-4.7 2.4-2 6.3-2 3.8 0 6.2 2 2.4 2 2.3 5v.2h-4q0-1.6-1.3-2.7-1.3-1-3.4-1-2 0-3.2 1-1 .8-1 2.2 0 1.5 1 2.2 1 .8 3.7 1.4 4.6 1 6.6 2.6t2 4.2q0 3-2.4 5-2.4 1.8-6.6 1.8-4 0-6.6-2-2.6-2.3-2.5-5.4h4q.2 2 1.6 3 1.6 1.2 3.8 1.2z"/>
    <path d="M117.4 161.6v4.3h-4v-4.4h4z" fill="#ffcf08"/>
    <path d="M125 144h4.3V169q0 3.6-1.8 5.5-1.8 2-5 2-1.2 0-2.4-.5l.3-3.3q.7.3 1.8.3 3 0 3-4V144zm4-10v4h-4v-4h4zM144 163q2.3 0 3.6-.8 1.3-1 1.3-2.3 0-1.6-1.2-2.4-1-1-4-1.5-4.3-1-6.3-2.4-2-1.6-2-4.3 0-2.8 2.4-4.7 2.3-2 6-2 4 0 6.4 2 2.3 2 2.2 5v.2h-4q0-1.6-1.3-2.7-1.2-1-3.3-1-2 0-3.2 1-1.2.8-1.2 2.2 0 1.5 1 2.2 1 .8 4 1.4 4.3 1 6.4 2.6 2 1.6 2 4.2 0 3-2.4 5-2.5 1.8-6.6 1.8-4 0-6.7-2-2.5-2.3-2.4-5.4h4q0 2 1.5 3 1.5 1.2 3.7 1.2z"/>
  </g>
</svg>