<svg xmlns="http://www.w3.org/2000/svg" height="250" width="250" viewBox="0 0 250 250">
    <title>Netology</title>
    <g transform="matrix(0.46958935,0,0,-0.46958935,-60.060455,269.64291)" id="g6">
        <g transform="scale(0.1,0.1)" id="g8">
            <path d="m 1722.5,3524 c 0.2,72 58.7,130.3 130.7,130.1 72,-0.2 130.3,-58.8 130.1,-130.8 -0.1,-58 -38.1,-107 -90.5,-123.8 l 0,-317.2 c 0,-1.2 -1.8,-2.1 -4,-2.1 l -71.8,0 c -2.2,0 -4,1 -4,2.1 l 0,317.2 c -52.6,16.9 -90.7,66.3 -90.5,124.6" fill="#c93aa5" />
            <path d="m 1446.9,3301.8 c -50.8,51 -50.6,133.7 0.5,184.4 51,50.8 133.7,50.6 184.5,-0.4 40.9,-41.1 48.7,-102.6 23.5,-151.6 L 1879.7,3110 c 0.8,-0.8 0.2,-2.7 -1.3,-4.3 l -50.8,-50.8 c -1.5,-1.5 -3.5,-2.2 -4.3,-1.3 L 1599,3277.9 c -49.2,-25.3 -111,-17.2 -152.1,24.1" fill="#5057b0" />
            <path d="m 1409.1,2949.7 c -72,0.2 -130.3,58.8 -130.1,130.8 0.2,72 58.7,130.3 130.8,130.1 58,-0.1 107.1,-38.1 123.9,-90.5 l 317.1,0 c 1.2,0 2.1,-1.8 2.1,-4 l 0,-71.9 c 0,-2.2 -1,-4 -2.1,-4 l -317.2,0 c -16.9,-52.7 -66.3,-90.7 -124.6,-90.5" fill="#1476c6" />
            <path d="m 1631.4,2674.1 c -51,-50.8 -133.7,-50.6 -184.4,0.5 -50.8,51.1 -50.6,133.7 0.5,184.5 41.1,40.9 102.7,48.7 151.6,23.6 l 224.3,224.3 c 0.8,0.8 2.7,0.2 4.3,-1.4 l 50.8,-50.7 c 1.6,-1.6 2.2,-3.5 1.3,-4.3 l -224.3,-224.3 c 25.3,-49.1 17.2,-111 -24,-152.1" fill="#00adef" />
            <path d="m 1983.4,2636.4 c -0.2,-72 -58.7,-130.3 -130.7,-130.1 -72,0.2 -130.3,58.7 -130.1,130.8 0.1,57.9 38.1,107.1 90.6,123.8 l 0,317.2 c 0,1.2 1.8,2.1 4,2.1 l 71.8,0 c 2.2,0 4,-0.9 4,-2.1 l 0,-317.2 c 52.6,-16.9 90.7,-66.3 90.5,-124.5" fill="#62b92c" />
            <path d="m 2259,2858.6 c 50.8,-51.1 50.6,-133.7 -0.5,-184.4 -51,-50.8 -133.6,-50.6 -184.5,0.5 -40.9,41.1 -48.7,102.6 -23.6,151.6 l -224.3,224.3 c -0.8,0.8 -0.2,2.8 1.3,4.3 l 50.8,50.8 c 1.6,1.6 3.5,2.2 4.3,1.4 l 224.3,-224.3 c 49.2,25.3 111,17.2 152.1,-24" fill="#b5dc17" />
            <path d="m 2296.8,3210.6 c 72,-0.2 130.3,-58.8 130.1,-130.8 -0.2,-72 -58.7,-130.3 -130.8,-130.1 -58,0.2 -107,38.2 -123.9,90.6 l -317.1,0 c -1.1,0 -2.1,1.8 -2.1,4 l 0,71.8 c 0,2.2 1,4 2.1,4 l 317.2,0 c 16.9,52.6 66.3,90.6 124.6,90.5" fill="#f47016" />
            <path d="m 2074.6,3486.2 c 51.1,50.8 133.7,50.6 184.5,-0.4 50.8,-51 50.6,-133.7 -0.5,-184.5 -41.1,-41 -102.7,-48.7 -151.6,-23.6 l -224.3,-224.3 c -0.8,-0.8 -2.7,-0.2 -4.3,1.4 l -50.8,50.8 c -1.6,1.6 -2.1,3.5 -1.3,4.3 l 224.3,224.3 c -25.3,49.2 -17.2,111 24,152.1" fill="#f0421e" />
            <path d="m 1719.5,3080.5 c 0.2,77.8 63.4,140.7 141.2,140.4 77.8,-0.2 140.7,-63.4 140.5,-141.2 -0.2,-77.7 -63.4,-140.6 -141.2,-140.4 -77.8,0.2 -140.7,63.4 -140.5,141.2" fill="#00adef" />
            <path d="m 3817.4,2887.8 0,56.4 44.2,0 0,261.2 -84.5,0 0,-36.1 -63.5,0 0,99.2 380.2,0 0,-99.2 -63.2,0 0,36.1 -86,0 0,-261.2 44.1,0 0,-56.4 -171.3,0 m 1621,0 0,56.4 36.3,0 0,262 -36.3,0 0,62.3 295.3,0 0,-98.4 -62.9,0 0,36 -113.1,0 0,-262 35.9,0 0,-56.4 -155.1,0 m 969.7,190.5 75.4,0 0,128 -64,0 c -60.9,0 -88.5,-22.7 -88.5,-59.9 0,-45.7 29.9,-68.1 77.1,-68.1 m 75.4,-190.3 0,136.3 -79.2,0 -53,-104.3 -25.1,-32 -78.6,0 0,56.4 34.8,0 50.3,95.1 c -57.1,19.9 -81.2,57.4 -81.2,108.4 0,72.7 49.2,120.8 159.6,120.8 l 191.6,0 0,-62.3 -36.3,0 0,-262 36.3,0 0,-56.4 -119.3,0 m -1293.9,54.4 c 72.3,0 132.5,57.9 132.5,138.6 0,80 -60.2,137 -132.5,137 -73.1,0 -132.5,-57.1 -132.5,-137 0,-80.7 59.4,-138.6 132.5,-138.6 m 0,339.6 c 115,0 207.9,-84.5 207.9,-201 0,-117.2 -92.9,-202.5 -207.8,-202.5 -115,0 -207.9,85.3 -207.9,202.5 0,116.5 92.9,201 207.9,201 m -867.2,-339.6 c 72.3,0 132.5,57.9 132.5,138.6 0,80 -60.2,137 -132.5,137 -73.1,0 -132.5,-57.1 -132.5,-137 0,-80.7 59.4,-138.6 132.5,-138.6 m 0,339.6 c 115,0 207.9,-84.5 207.9,-201 0,-117.2 -92.9,-202.5 -207.8,-202.5 -114.9,0 -207.8,85.3 -207.8,202.5 0,116.5 92.9,201 207.9,201 m 584.7,-337.7 0,324.3 -293.7,0 0,-62.3 34.9,0 c -8,-185.1 -16.4,-254.2 -105.2,-254.2 l 0,-66.4 c 3.8,-0.3 15.5,0 19.1,0 112.4,0 151.3,84.5 158.3,319.8 l 102.8,0 0,-261.2 -35.9,0 0,-56.4 155.5,0 0,56.4 -35.9,0 m -1420.5,273.7 c 62.3,0 115.5,-42.4 129.1,-105.3 l -258.2,0 c 13.4,62.9 66.1,105.3 129.1,105.3 M 3589.5,2992 c -24.5,-31 -61.5,-49.7 -102.6,-49.7 -64.1,0 -117.7,44.6 -129.8,110 l 332.6,0 c 15.9,117 -64.7,229.6 -202.7,229.6 -114.9,0 -205.5,-84.5 -205.5,-201 0,-117.2 90.6,-202.5 205.5,-202.5 83.1,0 154.5,44.7 187.7,113.7 l -85.1,0 m -520.6,276.4 0,0 -0.6,0 0,-56.5 35.7,0 0,-98.8 -177.5,0 0,155.3 -119.1,0 0,0 0,-47.5 0,-8.9 36.1,0 0,-267.8 -36.1,0 0,-56.4 155.6,0 0,56.4 -36.6,0 0,109.6 177.4,0 0,-166 119.6,0 0,56.4 0,0.1 -36.6,0 0,267.7 36.6,0 0,9.5 0,47 0,0 -154.6,0 m 3087.6,-324.1 0,324 -76.9,0 -194.9,-256.6 0,200.1 36.2,0 0,56.5 -155.3,0 0,0 0,-56.5 36.1,0 0,-324.2 60.9,0 0.8,1.6 209.4,273.3 0,-218.2 -35,0 0,-56.4 155.3,-0.2 0,0.2 0,56.2 0,0.3 -36.6,0" fill="#434d5d" />
        </g>
    </g>
</svg>
