<svg xmlns="http://www.w3.org/2000/svg" viewBox="0 0 66 66">
  <path fill="#2B2C31" d="M27.833 34.887h.034c.662.005 1.29.293 1.728.792.134.153.327.243.53.243.195 0 .38-.08.517-.22.13-.138.2-.323.19-.514-.01-.235-.046-.47-.107-.695-.307-1.1-1.21-1.928-2.327-2.136-.185-.034-.372-.05-.56-.05-.19 0-.38.016-.564.05-1.102.222-1.984 1.048-2.283 2.135-.062.227-.098.46-.106.694-.01.19.06.375.19.512.135.14.32.22.516.22.203 0 .397-.09.53-.243.434-.496 1.056-.784 1.713-.793zm12.754 13.64c-.055-.015-.093-.064-.093-.122v-1.81c1.048-1.368 1.83-2.924 2.308-4.583 1.188-1.178 1.714-3.045 1.996-4.052.457-1.633.92-3.998-.35-5.69l-.055-.072c.613-2.967 1.378-9.98-3.93-13.534.623-.636.96-1.5.936-2.39-.006-.086-.047-.165-.112-.22-.066-.052-.15-.076-.233-.068-.083.01-6.72.762-9.896.078-3.277-.67-6.89 1.833-7.63 4.398-1.248.16-2.384.808-3.164 1.8-1.45 1.788-1.894 4.647-1.32 8.478.04.49.104.98.187 1.467l-.06.073c-1.27 1.687-.807 4.057-.345 5.69.282 1.025.808 2.868 2 4.04.476 1.672 1.258 3.238 2.308 4.62v1.778c.002.058-.036.108-.092.122-4.532 1.056-15.09 4.41-15.09 12.815 0 .906.728 1.642 1.63 1.652h44.43c.906-.003 1.642-.74 1.645-1.652-.002-8.4-10.546-11.757-15.073-12.818zm-8.78 6.443c-2.82.036-5.48-1.3-7.143-3.583.725-.406 1.277-1.065 1.553-1.853.744.493 1.545.894 2.385 1.193 2.073.736 4.334.736 6.406 0 .836-.304 1.634-.706 2.376-1.198.27.796.826 1.464 1.558 1.876-1.667 2.276-4.325 3.603-7.136 3.564zm8.297-14.615c-.433 2.835-2.677 6.35-6.118 7.596-1.43.51-2.99.51-4.42 0-3.588-1.245-5.677-4.828-6.105-7.6-.02-.145-.142-.254-.286-.264-.166-.03-.774-.278-1.524-2.933-.584-2.072-.34-2.825-.14-3.09.138-.176.354-.27.578-.253h.14c.172.01.32-.118.332-.29.005-.043.365-4.505 3.004-6.118 1.314-.807 3.01-.777 5.023.088 4.128 1.77 7.2 1.657 9.074 1.236 2.133 1.584 1.52 4.116 1.373 4.604v.063c-.035.102-.017.214.05.3.066.082.17.126.276.116.26-.05.53.042.705.243.195.264.443 1.017-.14 3.09-.746 2.668-1.355 2.932-1.524 2.932h.01c-.156.003-.288.123-.306.28zm-2.79.412v-.015c-.13.02-.262.03-.394.028-.465-.06-.905-.25-1.27-.547-.59-.446-1.298-.707-2.035-.748-.655 0-1.292.217-1.81.616-.522-.398-1.157-.615-1.813-.615-.74.047-1.447.313-2.034.768-.367.298-.81.487-1.276.548-.132.002-.264-.008-.394-.028-.224-.04-.448.065-.56.264-.113.194-.092.438.053.61.72.828 1.777 1.276 2.868 1.218 1.567 0 2.63-.567 3.155-1.154.525.587 1.587 1.154 3.153 1.154 1.092.06 2.15-.39 2.868-1.218.144-.172.165-.416.054-.61-.108-.203-.336-.31-.563-.27zm-.992-8.408l-.01-.006c-.185-.033-.372-.05-.56-.05-.19 0-.378.017-.564.05-1.114.21-2.013 1.04-2.317 2.136-.057.23-.088.463-.092.7-.01.19.06.375.19.512.135.14.32.22.516.22.204 0 .397-.09.53-.243.44-.5 1.07-.79 1.733-.793h.034c.663.005 1.29.293 1.73.792.133.153.326.243.53.243.194 0 .38-.08.516-.22.13-.138.2-.323.19-.514-.016-.236-.06-.47-.127-.695-.302-1.09-1.19-1.918-2.298-2.136z"/>
  <path fill-rule="evenodd" clip-rule="evenodd" fill="#FFF" d="M6.25 2.043h-.04C3.665 2.053 1.35 3.52.254 5.823c-.513.888-.21 2.023.675 2.537.885.514 2.02.212 2.533-.675.047-.08.088-.164.122-.25.486-1.023 1.515-1.677 2.646-1.682 1.597.022 2.902 1.28 2.984 2.877.053 1.312-.767 2.5-2.01 2.918-1.654.544-2.78 2.08-2.805 3.82v1.582c.058 1.023.933 1.807 1.955 1.75.942-.054 1.694-.807 1.747-1.75v-1.6c.01-.21.267-.302.302-.313v.006c2.772-.938 4.604-3.584 4.506-6.513-.122-3.598-3.058-6.46-6.657-6.487zm.013 18.964c-1.027 0-1.86.833-1.86 1.86s.834 1.862 1.86 1.862 1.86-.834 1.86-1.862c-.004-1.026-.834-1.858-1.86-1.86zm13.646-10.04c-.572-.276-1.26-.036-1.535.535s-.037 1.26.534 1.535c.57.276 1.257.037 1.532-.535.275-.57.037-1.257-.533-1.535zM24.996.42l-.023-.012c-1.418-.68-3.102-.486-4.328.5-.523.354-.66 1.067-.307 1.59.353.525 1.065.662 1.59.308.047-.032.092-.068.134-.107.546-.44 1.293-.525 1.923-.223.882.44 1.27 1.492.887 2.402-.323.742-1.098 1.183-1.9 1.08-1.066-.142-2.105.41-2.587 1.37l-.426.88c-.242.585.034 1.256.618 1.498.538.225 1.158.008 1.44-.502l.43-.89c.064-.113.23-.096.254-.093l-.002.004c1.794.225 3.522-.755 4.255-2.41.9-2.034.035-4.416-1.958-5.398zm31.615 27.73c-.826-.308-1.746.114-2.055.94-.308.828.112 1.75.94 2.058.825.308 1.745-.113 2.054-.94.306-.827-.112-1.746-.938-2.057zm5.674-15.268l-.033-.013c-2.053-.76-4.358-.27-5.93 1.255-.678.56-.775 1.564-.216 2.244.56.68 1.563.775 2.24.216.063-.05.12-.106.174-.166.698-.677 1.723-.895 2.635-.558 1.278.496 1.952 1.9 1.54 3.21-.35 1.072-1.366 1.784-2.493 1.746-1.494-.058-2.86.84-3.402 2.235l-.474 1.273c-.26.84.21 1.733 1.05 1.994.773.24 1.604-.14 1.93-.884l.48-1.287c.07-.166.306-.165.337-.164l-.002.005c2.515.078 4.78-1.503 5.58-3.89.98-2.932-.526-6.118-3.414-7.218z"/>
</svg>