<svg xmlns="http://www.w3.org/2000/svg" width="156" height="160" viewBox="0 0 156 160">
    <g fill="none" fill-rule="evenodd">
        <path fill="#F7DF1E" d="M0 .793h156V160H0z"/>
        <g fill="#000" fill-rule="nonzero">
            <path d="M71.532 84v17H94.28v-3.589l-9.039-.02-9.049-.03-.03-6.062-.02-6.053h15.733l-.02-1.824-.03-1.815-7.847-.03-7.836-.02.02-5.464.03-5.454 8.899-.03 8.889-.02V67H71.532zM96.585 84v17h4.61V87.899c0-7.21.04-13.132.08-13.162.05-.03 3.788 5.853 8.307 13.082l8.208 13.131 2.325.03 2.325.02V67h-4.61v13.111c0 7.21-.03 13.112-.07 13.112-.05 0-3.778-5.903-8.288-13.112L101.255 67h-4.67v17zm29.061 0v17h5.843c7.075 0 7.997-.08 10.362-.907 1.984-.698 3.527-1.675 5.04-3.181 1.864-1.864 3.027-3.928 3.668-6.53.35-1.456.441-2.723.441-6.382 0-4.248-.12-5.444-.712-7.328-1.473-4.677-5.19-8.137-9.91-9.233-1.714-.4-2.476-.439-8.689-.439h-6.043v17zm11.876-13.31c2.825.318 4.97 1.495 6.563 3.609 1.073 1.415 1.704 2.871 2.065 4.815.17.868.19 1.496.19 4.886 0 3.38-.02 4.018-.19 4.886-.672 3.58-2.706 6.38-5.522 7.607-1.774.778-3.137.937-7.365.898l-2.957-.03-.03-13.261c-.01-7.299 0-13.321.03-13.39.06-.15 5.853-.17 7.216-.02zM35.546 67.577c-1.734.449-3.076 1.915-3.567 3.869-.241.987-.241 4.776 0 5.763.39 1.545 1.453 2.951 2.695 3.53 1.473.698 3.377.678 4.81-.04.712-.36 1.624-1.257 2.045-1.994.611-1.087.741-1.855.741-4.378 0-2.452-.13-3.26-.671-4.267-.401-.738-1.333-1.685-2.014-2.044-1.143-.608-2.716-.778-4.039-.439zm2.826 1.017c.862.26 1.533.798 2.014 1.596.652 1.086.712 1.386.762 3.838.04 2.423-.04 3.051-.551 4.118-.371.788-1.143 1.526-1.884 1.825-.501.2-.782.23-1.704.24-1.052 0-1.142-.02-1.774-.33-1.092-.528-1.843-1.575-2.144-2.961-.19-.838-.18-4.497.01-5.275.38-1.575 1.333-2.682 2.686-3.1.651-.21 1.854-.18 2.585.05zM9 74.328v6.731h1.102v-6.282l3.287-.02 3.277-.03v-.897l-3.277-.03-3.287-.02v-5.284h7.516v-.898H9zM19.823 74.328v6.73h1.202V74.978h2.105c2.325 0 2.876.08 3.547.498.852.538 1.163 1.376 1.163 3.15 0 1.098.14 1.835.41 2.184.171.21.291.25.752.25.32 0 .541-.04.541-.11 0-.06-.12-.31-.27-.558-.25-.43-.27-.559-.33-2.114-.061-1.416-.101-1.735-.302-2.184-.27-.618-.952-1.266-1.513-1.436-.22-.06-.39-.14-.39-.179 0-.04.18-.15.39-.25.521-.229 1.173-.877 1.503-1.495.231-.439.261-.608.261-1.495 0-.878-.03-1.067-.27-1.546-.351-.738-.862-1.256-1.554-1.565-.992-.459-1.573-.519-4.51-.529h-2.735v6.73zm6.474-5.454c1.182.529 1.723 1.696 1.443 3.052-.16.767-.602 1.326-1.353 1.704l-.602.3-2.375.03-2.385.04v-5.415l2.385.03c2.235.03 2.406.04 2.887.26zM45.277 74.328v6.731h1.102l.02-5.783.03-5.773 3.818 5.753 3.818 5.753.561.03.572.03V67.598H54.095l-.02 5.773-.03 5.763-3.818-5.743-3.808-5.743-.571-.03-.571-.03zM57.102 68.047v.449l2.335.02 2.324.029.031 6.252.02 6.262h1.102V68.496h4.61v-.898H57.102zM17.769 86.662c.02.07.741 2.862 1.603 6.212.862 3.34 1.633 6.321 1.714 6.6l.15.529h1.062l1.383-4.666a513.578 513.578 0 0 0 1.714-5.853c.17-.658.34-1.127.37-1.047.03.08.22.728.411 1.446.2.708.942 3.27 1.654 5.683l1.293 4.387.54.03.542.03 1.693-6.56c.932-3.61 1.714-6.641 1.734-6.741.04-.16-.02-.18-.531-.15l-.581.03-1.193 4.687c-.651 2.572-1.283 5.115-1.393 5.633-.1.518-.22 1.037-.26 1.147-.03.12-.2-.36-.441-1.297-.21-.827-.962-3.45-1.674-5.832l-1.283-4.338-.55-.03-.542-.03-1.383 4.677c-.761 2.572-1.513 5.185-1.673 5.793-.15.618-.3 1.146-.331 1.166-.03.03-.12-.369-.22-.877-.09-.509-.732-3.12-1.413-5.803-.682-2.682-1.243-4.886-1.243-4.906 0-.02-.27-.04-.601-.04-.431 0-.582.03-.551.12zM36.057 93.273v6.73h8.518v-.897h-7.416v-5.584h6.514v-.997h-6.514V87.44h7.416v-.897h-8.518zM46.98 93.273v6.73h8.518v-.897h-7.415v-5.584h6.513v-.997h-6.513V87.44h7.415v-.897H46.98zM58.004 93.273v6.73h1.102V93.72h1.874l2.796 3.141 2.796 3.14h1.373l-.19-.238c-.101-.13-1.434-1.655-2.967-3.4-1.543-1.735-2.776-3.201-2.746-3.27.03-.07 1.253-1.526 2.716-3.251a525.791 525.791 0 0 0 2.726-3.21c.03-.05-.241-.09-.592-.09h-.651l-2.636 3.08-2.645 3.091h-.922l-.932.01v-6.181h-1.102v6.73z"/>
        </g>
    </g>
</svg>
