<svg xmlns="http://www.w3.org/2000/svg" viewBox="0 0 250 250">
    <title>MinskJS</title>
    <rect x="0" y="0" width="250" height="250" fill="#fff"/>
    <g transform="translate(33.614507,14.639007)">
        <g transform="matrix(1.1326466,0,0,1.1326466,-12.121973,-14.639007)">
            <rect x="50.8" y="24" width="81.7" height="75.8" fill="#ef3c51"/>
            <polygon points="7.8 45.8 49.1 22.5 54.8 0.6 " fill="#e29fc7"/>
            <polygon points="59.3 165 50.8 102 132.5 102 124.3 165 " fill="#f57f20"/>
            <polygon points="50.8 22.5 57.1 0 126.5 0 132.5 22.5 " fill="#d16aa9"/>
            <polygon points="49.3 99.8 49.3 24 7.9 47.7 3.5 113.5 " fill="#f27070"/>
            <polygon points="175.6 45.8 134.3 22.5 128.6 0.6 " fill="#d32589"/>
            <polygon points="134.3 99.8 134.3 24 175.7 47.7 180.1 113.5 " fill="#e21d3f"/>
            <polygon points="134.3 102 178.9 115.6 126.4 165 " fill="#f05223"/>
            <polygon points="48.9 102 4.3 115.6 56.8 165 " fill="#fcb017"/>
        </g>
        <path d="m-12.1 197.3 4.3 0 13.7 20.5 13.7-20.5 4.3 0 0 37.6-4.2 0 0-30.4-13.7 20.1-0.2 0-13.7-20.1 0 30.4-4.1 0 0-37.6zM33.9 196.5l4.7 0 0 4.6-4.7 0 0-4.6zm0.3 10.6 4.1 0 0 27.7-4.1 0 0-27.7zM47.9 207.1l4.1 0 0 4.8c1.8-3 4.7-5.4 9.5-5.4 6.7 0 10.6 4.5 10.6 11.1l0 17.2-4.1 0 0-16.2c0-5.2-2.8-8.4-7.7-8.4-4.8 0-8.3 3.5-8.3 8.7l0 15.9-4.1 0 0-27.7zM78.6 231.3l2.1-2.9c3 2.3 6.3 3.5 9.6 3.5 3.3 0 5.7-1.7 5.7-4.5 0-2.8-3.3-3.9-6.9-4.9-4.3-1.2-9.2-2.7-9.2-7.9 0-4.8 4-7.9 9.4-7.9 3.4 0 7.1 1.2 10 3.1l-1.9 3.1c-2.6-1.7-5.5-2.7-8.2-2.7-3.3 0-5.4 1.7-5.4 4.1 0 2.6 3.4 3.6 7.1 4.8 4.3 1.3 8.9 3 8.9 8 0 5.3-4.3 8.3-9.9 8.3-4 0-8.4-1.6-11.5-4.1zM107.6 195.7l4.1 0 0 27 15-15.6 5.2 0-11.6 11.9 12 15.8-4.9 0-9.9-12.9-5.6 5.7 0 7.2-4.1 0 0-39.2z" fill="#010101"/>
        <path d="m134.6 229.3 4.3-4.5c2.2 2.8 4.4 4.4 7.6 4.4 3.5 0 6-2.4 6-7.3l0-24.6 6.8 0 0 24.8c0 4.5-1.3 7.8-3.5 10-2.2 2.2-5.4 3.3-9.1 3.3-5.8 0-9.5-2.7-12-6.1zM165.8 229.4l4-4.7c3.6 3.1 7.2 4.9 11.9 4.9 4.1 0 6.7-1.9 6.7-4.8 0-2.7-1.5-4.1-8.5-5.8-8-1.9-12.5-4.2-12.5-11.3 0-6.4 5.4-10.9 12.8-10.9 5.5 0 9.8 1.7 13.6 4.7l-3.5 5c-3.4-2.5-6.8-3.9-10.2-3.9-3.9 0-6.1 2-6.1 4.6 0 2.9 1.7 4.2 8.9 5.9 7.9 1.9 12.1 4.8 12.1 11.1 0 7-5.5 11.2-13.4 11.2-5.7 0-11.2-2-15.7-6z" fill="#e21d3f"/>
    </g>
</svg>
