<svg xmlns="http://www.w3.org/2000/svg" viewBox="0 0 250 250" height="250" width="250">
    <title>MoscowCSS</title>
    <g transform="matrix(1.3333333,0,0,-1.3333333,233.7498,338.04589)">
        <g transform="matrix(0.92323057,0,0,0.92323057,-134.61838,87.26872)">
            <path d="m0 0c0-4.8 1-9 3-12.4 2-3.4 4.7-6 8.1-7.8 3.5-1.8 7.3-2.8 11.5-2.8 4.3 0 8.1 1 11.4 2.9 2.6 1.5 4.4 3.5 5.8 5.9 0.2 0.3 0.3 0.6 0.4 0.9 0 0 0.2 0.8-0.1 1.6-0.2 0.8-0.8 1.4-1.2 1.6-0.4 0.3-0.9 0.6-2 0.6-0.9 0-1.6-0.5-1.9-0.7-0.3-0.2-0.9-1-1.1-1.2-1-1.2-1.9-2-3.4-3-2.3-1.4-5.1-2.2-8.1-2.2-2.9 0-5.5 0.7-7.7 2-2.3 1.3-4.2 3.3-5.5 5.8-0.9 1.9-1.5 4-1.7 6.3C7.4-1.8 7.4-0.9 7.4 0l0 0c0 0.9 0 1.8 0.1 2.5 0.2 2.3 0.8 4.4 1.8 6.3 1.3 2.5 3.2 4.5 5.5 5.8 2.3 1.3 4.9 2 7.8 2 3.1 0 5.8-0.7 8.1-2.2 1.6-1 2.4-1.8 3.4-3 0.2-0.2 0.8-1 1.1-1.2 0.3-0.2 1-0.7 1.9-0.7 1.1 0 1.6 0.4 2 0.6 0.4 0.3 0.9 0.9 1.2 1.6 0.2 0.8 0.1 1.6 0.1 1.6-0.1 0.3-0.2 0.7-0.4 0.9-1.4 2.3-3.2 4.4-5.8 5.9C30.9 22 27 23 22.8 23 18.6 23 14.8 22.1 11.3 20.2 7.7 18.4 5 15.8 3 12.4 1 9 0 4.8 0 0Z" fill="#ea002a"/>
        </g>
        <g transform="matrix(0.92323057,0,0,0.92323057,-31.682232,84.643237)">
            <path d="m0 0c-1.7 2.1-4.1 3.6-7.1 4.5l-8.8 2.7c-1.6 0.5-2.8 1.1-3.7 2-0.8 0.9-1.3 2.2-1.3 3.8 0 1.8 0.8 3.4 2.3 4.6 1.4 1.1 3.3 1.6 5.8 1.6 2.3 0 4.5-0.6 6.6-1.9 0.8-0.5 1.1-0.7 1.6-1.1 0.4-0.3 1.2-0.8 1.6-0.9 0.4-0.1 0.8-0.2 1.5 0 0.7 0.1 1.3 0.6 1.7 1 0.3 0.4 0.5 0.7 0.7 1.2 0.1 0.3 0.2 1.1 0.1 1.5-0.2 0.7-0.5 1.3-1 1.8-0.7 0.7-1.6 1.3-2.5 1.9-3.1 1.8-6.7 2.7-10.5 2.7-2.9 0-5.6-0.6-7.9-1.7-2.3-1.1-4.1-2.6-5.3-4.6-1.3-2-1.9-4.3-1.9-6.8 0-2.8 0.7-5.2 2.2-7.2 1.5-1.9 3.5-3.3 6.2-4.1l9.5-2.9c1.8-0.6 3-1.2 3.9-1.9 0.7-0.5 1.5-1.6 1.5-3.5 0-2-0.8-3.6-2.4-4.7-1.4-1-3.2-1.5-5.5-1.5l-0.6 0c-2.2 0-4.4 0.6-6.5 1.9-0.8 0.5-1.5 1-2.2 1.7-0.3 0.4-0.8 1-1.1 1.6-0.3 0.5-0.8 1.2-1.1 1.4-0.3 0.2-0.7 0.4-1.4 0.6-0.7 0.1-1.4-0.1-1.9-0.3-0.5-0.2-0.7-0.5-1-0.9-0.2-0.2-0.6-0.9-0.6-1.4-0.1-0.8 0-1.3 0.3-2.1 0.3-0.9 0.9-1.8 1.6-2.6 0.8-1 2.3-2.3 3.9-3.2 3-1.7 6.3-2.6 9.9-2.7l1.2 0c4.5 0 8.2 1.1 10.8 3.3 2.6 2.2 3.9 5.2 3.9 9C2.4-4.3 1.6-1.9 0 0" fill="#ea002a"/>
        </g>
        <g transform="matrix(0.92323057,0,0,0.92323057,-65.642437,84.643237)">
            <path d="m0 0c-1.7 2.1-4.1 3.6-7.1 4.5l-8.8 2.7c-1.6 0.5-2.8 1.1-3.7 2-0.8 0.9-1.3 2.2-1.3 3.8 0 1.8 0.8 3.4 2.3 4.6 1.4 1.1 3.3 1.6 5.8 1.6 2.3 0 4.5-0.6 6.6-1.9 0.8-0.5 1.1-0.7 1.6-1.1 0.4-0.3 1.2-0.8 1.6-0.9 0.4-0.1 0.8-0.2 1.5 0 0.7 0.1 1.3 0.6 1.7 1 0.3 0.4 0.5 0.7 0.7 1.2 0.1 0.3 0.2 1.1 0.1 1.5-0.2 0.7-0.5 1.3-1 1.8-0.7 0.7-1.6 1.3-2.5 1.9-3.1 1.8-6.7 2.7-10.5 2.7-2.9 0-5.6-0.6-7.9-1.7-2.3-1.1-4.1-2.6-5.3-4.6-1.3-2-1.9-4.3-1.9-6.8 0-2.8 0.7-5.2 2.2-7.2 1.5-1.9 3.5-3.3 6.2-4.1l9.5-2.9c1.8-0.6 3-1.2 3.9-1.9 0.7-0.5 1.5-1.6 1.5-3.5 0-2-0.8-3.6-2.4-4.7-1.4-1-3.2-1.5-5.5-1.5l-0.6 0c-2.2 0-4.4 0.6-6.5 1.9-0.8 0.5-1.5 1-2.2 1.7-0.3 0.4-0.8 1-1.1 1.6-0.3 0.5-0.8 1.2-1.1 1.4-0.3 0.2-0.7 0.4-1.4 0.6-0.7 0.1-1.4-0.1-1.9-0.3-0.5-0.2-0.7-0.5-1-0.9-0.2-0.2-0.6-0.9-0.6-1.4-0.1-0.8 0-1.3 0.3-2.1 0.3-0.9 0.9-1.8 1.6-2.6 0.8-1 2.3-2.3 3.9-3.2 3-1.7 6.3-2.6 9.9-2.7l1.2 0c4.5 0 8.2 1.1 10.8 3.3 2.6 2.2 3.9 5.2 3.9 9C2.4-4.3 1.6-1.9 0 0" fill="#ea002a"/>
        </g>
        <g transform="matrix(0.92323057,0,0,0.92323057,-40.483573,111.66804)">
            <path d="m0 0-11.3 0c-1.1 0-2.2 0.3-3.2 0.9-1.9 1.1-3 3.1-3 5.4l0 50.7c0 0.3-0.1 0.6-0.2 0.7-0.4 0.5-0.7 0.5-1 0.5l-1.6 0c-0.5 0-2.1 0.2-3.4 0.9-1.5 0.8-2.6 2.2-3.8 4.8-1.2 2.6-7.7 22.3-8.5 24.6l-11.4 38.1c-0.4 1.3 0.4 2.7 1.7 3.1 1.3 0.4 2.7-0.4 3.1-1.7l11.4-38c2.9-8.6 7.4-22.2 8.2-24 1-2.1 1.5-2.4 1.7-2.5 0.2-0.1 0.8-0.2 1.2-0.3l1.4 0c1.9 0 3.6-0.8 4.9-2.3 0.9-1.1 1.4-2.5 1.4-3.9l0-50.7c0-0.7 0.4-1 0.6-1.1C-11.6 5-11.3 5-11.3 5L0 5C1.4 5 2.5 3.9 2.5 2.5 2.5 1.1 1.4 0 0 0" fill="#54565b"/>
        </g>
        <g transform="matrix(0.92323057,0,0,0.92323057,-113.1722,111.66804)">
            <path d="m0 0-11.3 0c-1.4 0-2.5 1.1-2.5 2.5 0 1.4 1.1 2.5 2.5 2.5L0 5c0.1 0 0.4 0 0.6 0.2 0.2 0.1 0.6 0.4 0.6 1.1l0 50.7c0 1.4 0.5 2.9 1.4 3.9 1.2 1.5 3 2.3 4.9 2.3l1.4 0c0.5 0 1 0.2 1.2 0.3 0.2 0.1 0.7 0.4 1.7 2.5 0.8 1.8 5.4 15.4 8.3 24.1L31.5 128c0.4 1.3 1.8 2.1 3.1 1.7 1.3-0.4 2.1-1.8 1.7-3.1L24.8 88.6C24 86.3 17.5 66.6 16.3 64 15.1 61.4 14 60 12.5 59.2 11.2 58.5 9.6 58.3 9.1 58.3l-0.2 0-1.5 0C7.2 58.3 6.8 58.2 6.4 57.8 6.3 57.7 6.2 57.3 6.2 57L6.2 6.3C6.2 4.1 5.1 2 3.2 0.9 2.2 0.3 1.1 0 0 0" fill="#54565b"/>
        </g>
        <g transform="matrix(0.92323057,0,0,0.92323057,-82.023963,155.7199)">
            <path d="m0 0c-8.9 0-16.1-7.2-16.1-16.1 0-8.9 7.2-16.1 16.1-16.1 8.9 0 16.1 7.2 16.1 16.1C16.1-7.2 8.9 0 0 0m0-35.1c-10.5 0-19.1 8.6-19.1 19.1 0 10.4 8.6 19 19.1 19 10.5 0 19.1-8.6 19.1-19.1 0-10.5-8.6-19-19.1-19" fill="#54565b"/>
        </g>
        <g transform="matrix(0.92323057,0,0,0.92323057,-82.023963,139.96044)">
            <path d="m0 0c-0.6 0-1 0.4-1 1l0 10.3c0 0.6 0.4 1 1 1 0.6 0 1-0.4 1-1L1 1C1 0.4 0.6 0 0 0" fill="#54565b"/>
        </g>
        <g transform="matrix(0.92323057,0,0,0.92323057,-84.847756,135.11985)">
            <path d="M0 0C-0.2 0-0.3 0-0.5 0.1-1 0.4-1.1 1-0.9 1.5L2.2 6.7C2.5 7.2 3.1 7.4 3.6 7.1 4 6.8 4.2 6.2 3.9 5.7L0.9 0.5C0.7 0.2 0.3 0 0 0" fill="#54565b"/>
        </g>
        <g transform="matrix(0.92323057,0,0,0.92323057,-19.831644,66.607374)">
            <path d="M0 0-5.6 0C-7 0-8.1 1.1-8.1 2.5-8.1 3.9-7 5-5.6 5l0 0 5.5 0c0.2 0 0.4 0.1 0.5 0.2 0.3 0.2 0.3 0.4 0.3 0.5l0 13.2c0 0.6 0.1 1.8 1.1 2.9 0.9 1 2.3 1.4 3.2 1.4l0 0c1.2 0 3-0.5 4.4-3.1 0.3-0.7 2.1-3.9 2.9-5.4 0.1-0.1 0.2-0.3 0.6-0.3 0.4 0 0.5 0.2 0.6 0.3l1.3 2.4c0.7 1.3 1.5 2.7 1.6 3 1.4 2.6 3.2 3.1 4.5 3.1 0.9 0 2.1-0.4 3-1.4 1.1-1.1 1.2-2.3 1.2-2.9l0-16.4C25.1 1.1 24 0 22.6 0 21.2 0 20.1 1.1 20.1 2.5l0 13.8c-0.3-0.5-0.6-1.1-0.9-1.7l-1.3-2.4c-1-1.8-2.9-2.9-5-2.9-2.1 0-4 1.1-5 2.9-0.6 1-1.5 2.8-2.2 4L5.7 5.6C5.7 4.3 5.1 2.9 4.1 1.8 3.1 0.7 1.7 0.1 0.1 0Z" fill="#54565b"/>
        </g>
        <g transform="matrix(0.92323057,0,0,0.92323057,-143.29305,66.607374)">
            <path d="m0 0-0.1 0c-1.6 0.1-3 0.7-4 1.8-1 1.1-1.6 2.5-1.6 3.9l0 10.5C-6 15.6-6.3 15.1-6.5 14.8-7 14-7.5 13-7.7 12.7l-0.1-0.2c-0.6-1.1-1.8-3.2-5.1-3.2-3.3 0-4.6 2.4-5.2 3.4-0.2 0.4-0.8 1.4-1.2 2.1-0.2 0.3-0.5 0.8-0.8 1.4l0-13.8c0-1.4-1.1-2.5-2.5-2.5-1.4 0-2.5 1.1-2.5 2.5l0 16.4c0 0.6 0.1 1.8 1.1 2.9 0.9 1 2.2 1.4 3.2 1.4l0 0c1.2 0 3-0.5 4.4-3.1l0.2-0.4c0.3-0.6 0.9-1.8 1.2-2.2 0.5-0.8 1.1-1.9 1.3-2.3 0.5-0.8 0.5-0.8 0.8-0.8 0.3 0 0.4 0 0.4 0 0 0 0.2 0.3 0.3 0.5l0.1 0.2c0.2 0.4 0.8 1.4 1.3 2.3 0.3 0.5 0.9 1.6 1.2 2.2l0.2 0.4c1.3 2.6 3.2 3.1 4.4 3.1 0.9 0 2.2-0.3 3.1-1.4 1-1.1 1.1-2.3 1.1-2.9l0-13.2c0-0.1 0-0.3 0.3-0.6 0.2 0.2 0.4 0.1 0.6 0.1l5.4 0 0 0C6.9 5 8 3.9 8 2.5 8.1 1.1 6.9 0 5.6 0Z" fill="#54565b"/>
        </g>
        <g transform="matrix(0.92323057,0,0,0.92323057,-82.031626,234.97749)">
            <path d="m0 0c-0.5 0-0.9-0.3-0.9-0.3l-5.2-3.8c0 0-0.8-0.7-1.8 0-0.9 0.7-0.5 1.6-0.5 1.6l2 6.1c0 0 0.2 0.4 0 1-0.1 0.4-0.5 0.7-0.5 0.7l-5.4 3.9c0 0-0.9 0.7-0.5 1.7 0.4 1 1.4 0.9 1.4 0.9l6.5 0c0 0 0.5 0 0.9 0.3 0.5 0.4 0.6 0.9 0.6 0.9l2 6.1c0 0 0.3 1 1.4 1 1.1 0 1.4-1 1.4-1l2-6.1c0 0 0.1-0.5 0.6-0.9 0.4-0.3 0.9-0.3 0.9-0.3l6.5 0c0 0 1 0 1.4-0.9 0.4-1-0.5-1.6-0.5-1.6L6.9 5.4C6.9 5.4 6.5 5.1 6.4 4.7 6.2 4 6.5 3.6 6.5 3.6l2-6.1c0 0 0.3-0.9-0.5-1.6-1-0.7-1.8 0-1.8 0L1-0.3C0.9-0.3 0.5 0 0 0Z" fill="#ea002a"/>
        </g>
    </g>
</svg>
