<svg xmlns="http://www.w3.org/2000/svg" width="250" height="250" viewBox="0 0 250 250">
    <title>MoscowJS</title>
    <rect width="250" height="250" fill="#F3DF49"/>
    <path d="m65.7 208.9 19.1-11.6c3.7 6.5 7 12.1 15.1 12.1 7.7 0 12.6-3 12.6-14.8l0-79.9 23.5 0 0 80.2c0 24.3-14.3 35.4-35.1 35.4-18.8 0-29.7-9.7-35.2-21.5" fill="#2E2E2C"/>
    <path d="M148.8 206.4 167.9 195.3c5 8.2 11.6 14.3 23.2 14.3 9.7 0 15.9-4.9 15.9-11.6 0-8.1-6.4-10.9-17.1-15.6l-5.9-2.5c-17-7.2-28.2-16.3-28.2-35.4 0-17.6 13.4-31 34.4-31 14.9 0 25.7 5.2 33.4 18.8l-18.3 11.7c-4-7.2-8.4-10.1-15.1-10.1-6.9 0-11.2 4.4-11.2 10.1 0 7 4.4 9.9 14.4 14.3l5.9 2.5c20 8.6 31.2 17.3 31.2 36.9 0 21.1-16.6 32.7-38.9 32.7-21.8 0-35.9-10.4-42.8-24" fill="#2E2E2C"/>
    <path d="m35.1 224.9c0 0 11.6 24.9 10.9 24.9-0.7 0-2.7 0-2.7 0l-3.1-7.2-1.2 0-0.4 7.3-2.7 0-1.6-7.2-1.8 0-1.4 7.3-0.6 0-2.2 0-0.6 0-1.3-7.3-1.9 0-1.5 7.2-2.7 0-0.4-7.3-1.2 0-3.1 7.2c0 0-1.9 0-2.7 0-0.7 0 10.9-24.9 10.9-24.9l0.4-20.3-3.5 0 0-1.3 3.8 0 0.5-21.3-1.9 0 0-5.5 2.2 0 0.9-38.7-2.4 0 0-3.3 3 0 0.4-28.8-2.6 0 0-7.5-1.5 0 0-2.5 1.5 0 0-7.4 3 0 0.3 0 0.1 0 0.3-12.6-2.1 0 0-0.6 2.3 0 0.2-32.1-2.5 0 0-0.6 2.5 0 0.2-20 0-0.1-2.1 0 0-0.6 2.4 0 0.2-16 0.2 16 2.4 0 0 0.6-2.1 0 0 0.1 0.2 20 2.5 0 0 0.6-2.4 0 0.2 32.1 2.3 0 0 0.6-2.1 0 0.3 12.6 0.1 0 0.3 0 3 0 0 7.4 1.5 0 0 2.5-1.5 0 0 7.5-2.6 0 0.4 28.8 3 0 0 3.3-2.4 0 0.9 38.7 2.2 0 0 5.5-1.9 0 0.5 21.3 3.8 0 0 1.3-3.5 0 0.4 20.3z" fill="#2E2E2C"/>
</svg>
