<svg xmlns="http://www.w3.org/2000/svg" width="250" height="250" viewBox="0 0 358.2 351">
    <title>Web Not Bombs</title>
    <circle cx="179.1" cy="175.5" r="179.1" fill="#FFD355"/>
    <path d="M212.6 52.8 177.3 16.5c-0.4-0.4-0.9-0.3-1.1 0.2L153.5 76.3c-0.2 0.5-0.1 1.4 0.2 1.9l21.3 32.1c0.3 0.5 0.5 1.3 0.3 1.9l-1.7 6.2c-0.1 0.6-0.6 1.3-1 1.7l-16.1 15.3c-4.2 4-9.3 11.6-11.5 17.1 0 0-41.2 103-41 133.9 0.2 29.5 32.9 37.4 35.8 38.1 2.8 0.9 35.1 10.4 50-15.1 15.6-26.6 31.5-136.4 31.5-136.4 0.9-5.8 0.2-14.9-1.4-20.5l-6.3-21.3c-0.2-0.6-0.2-1.5 0-2l1.7-6.2c0.1-0.6 0.7-1.2 1.2-1.5l34.5-17.2c0.5-0.3 1-0.9 1.1-1.5l10.2-62.9c0.1-0.6-0.3-0.9-0.8-0.8l-48.7 13.8z" fill="#00000"/>
</svg>
